<?xml version="1.0" encoding="UTF-8"?>
<svg id="Layer_2" data-name="Layer 2" xmlns="http://www.w3.org/2000/svg" viewBox="0 0 249.01 12.24">
  <defs>
    <style>
      .cls-1 {
        opacity: .85;
      }

      .cls-2 {
        fill: #3ca03c;
        stroke-width: 0px;
      }
    </style>
  </defs>
  <g id="Layer_1-2" data-name="Layer 1">
    <g class="cls-1">
      <g>
        <path class="cls-2" d="M228.52,4.83c-.83-.01-1.66-.03-2.49-.05.42.07.83.17,1.26.34.54.11.83-.1,1.23-.29Z"/>
        <path class="cls-2" d="M223.73,4.73c-.15,0-.3,0-.44-.01-.13.03-.26.06-.38.09.27-.03.55-.06.82-.08Z"/>
        <path class="cls-2" d="M219.4,4.97c.77.05,1.5.02,2.21-.04-.63-.07-1.35-.07-2.21.04Z"/>
        <path class="cls-2" d="M222.85,5.21c-.27-.14-.4-.29.04-.4,0,0,.01,0,.02,0-.43.05-.86.09-1.31.13.47.06.89.15,1.25.27Z"/>
        <path class="cls-2" d="M222.85,5.21c.26.14.67.27.81.35-.23-.13-.5-.24-.81-.35Z"/>
        <path class="cls-2" d="M221.76,8.6c-.44.11-.33-.85-1.2-.64-2.03.27-3.76.7-5.66.7-.86.22-2.23-.85-3.09-.63-2.03.27-7.22,1.56-4.17,1.5,4.6-.14,7.6-.4,11.73-.58,3.35-.39,6.58-.84,10.01-1.19.96-.05,1.86.03,2.76.09-1.18-.15-2.39-.3-3.73-.44-1.77-.26-3.9.97-6.66,1.18Z"/>
        <path class="cls-2" d="M246.86,5.41c-.43.11-1.3.32-1.3.32-1.93-.69-3.96-.42-5.99-.15.3.16.6.32.9.48,1.16-.06,1.29-.32.26-.53,2.36.58,4.59.67,6.88.58-.14-.26-.11-.56-.76-.69Z"/>
        <path class="cls-2" d="M248.96,6.02c-.45.03-.9.06-1.34.08,0,.03.03.05.05.08.45-.05.9-.1,1.34-.14-.02,0-.03-.02-.05-.02Z"/>
        <path class="cls-2" d="M210.2,5.85c-5.76.04-11.19,0-16.49-.1-.41.19-.69.4-1.24.29-.41-.17-.83-.27-1.24-.34-.77-.02-1.55-.03-2.31-.05-.27.02-.54.05-.82.08,0,0-.02,0-.02,0-.43.11-.31.26-.04.4.3.1.57.22.81.35-.15-.08-.55-.21-.81-.35-.36-.12-.77-.22-1.25-.27-.71.06-1.44.09-2.2.04.85-.11,1.58-.11,2.2-.04.45-.04.88-.09,1.31-.13.12-.03.25-.06.38-.09-1.77-.04-3.52-.09-5.28-.14-.4.02-.79.05-1.11.08-1.27.13-2.54.26-3.33-.21-.31,0-.63-.02-.94-.03.06.03.12.05.18.09-.14-.03-.26-.06-.35-.09-1.33-.04-2.66-.08-3.99-.12-.86.18-1.75.41-2.65.54,0,0-.6-.32-.9-.48-.36.24-.88.4-1.49.48.72.29,1.37.6,1.99.8.9.48,2-.96,3.06-.06-1.06-.91-2.16.54-3.06.06-.61-.2-1.27-.51-1.99-.8-1.26.17-2.89,0-4.21-.47,1.63-.41,3.01-.01,4.21.47.61-.08,1.12-.24,1.49-.48.3.16.9.48.9.48.89-.14,1.78-.36,2.65-.54-2.61-.08-5.24-.17-7.94-.25-17.32-.61-33.3-.5-51.28-.95-9.74-.28-19.09-.69-28.27-1.25-18.3-1.12-34.99.17-53.47-2.26C25.6-.35,12.43.11,5.59.21-3.57,1.81,1.18,5.93,1.61,6.16c5.63,3.51,10.04,1.56,21.52,3.62-7.82-1.17,5.77-2.26,13.15.15,10.68,3.66,25.92.73,39.1,1.67,3.29.24,6.8.07,10.74.14,20.42,1.25,39.39-.31,60.87-.02,5.69-.01,10.69-.9,15.48-1.39,3.5-.17,7.24.31,10.08.3,4.47,0,8.33-.34,12.01-.77-4.12.18-7.13.43-11.73.58-3.06.06,2.13-1.23,4.16-1.5.87-.21,2.23.85,3.1.63,1.89,0,3.62-.43,5.65-.7.87-.21.77.75,1.2.64,2.76-.22,4.9-1.45,6.66-1.19,1.34.14,2.55.29,3.73.44.75.05,1.49.1,2.28.06.49-.08,1-.16,1.5-.24-.4-.29-.55-.65-.68-1.01.73.05,1.76.26,2.49.32-.73-.05-1.76-.27-2.49-.32.13.36.28.72.68,1.01,3.64-.56,7.84-1.07,11.74-1.48-.02-.03-.04-.06-.05-.09-2.28.1-4.51,0-6.88-.57,1.02.21.9.48-.27.54-.3-.16-.6-.32-.89-.48,2.03-.27,4.06-.54,5.99.15,0,0,.87-.21,1.3-.32.64.13.61.43.75.69.44-.02.9-.04,1.35-.08-.95-.48-3.95-1.09-3.95-1.09Z"/>
        <path class="cls-2" d="M186.75,5.83c.31-.03.69-.05,1.1-.08-1.48-.04-2.95-.09-4.43-.13.78.47,2.06.34,3.33.21Z"/>
      </g>
    </g>
  </g>
</svg>