<?xml version="1.0" encoding="UTF-8"?>
<svg id="Layer_2" data-name="Layer 2" xmlns="http://www.w3.org/2000/svg" xmlns:xlink="http://www.w3.org/1999/xlink" viewBox="0 0 210.05 145.87">
  <defs>
    <style>
      .cls-1 {
        mask: url(#mask-14);
      }

      .cls-2 {
        mask: url(#mask-13);
      }

      .cls-3 {
        mask: url(#mask-12);
      }

      .cls-4 {
        mask: url(#mask-11);
      }

      .cls-5 {
        mask: url(#mask-10);
      }

      .cls-6 {
        clip-path: url(#clippath);
      }

      .cls-7, .cls-8, .cls-9, .cls-10, .cls-11, .cls-12, .cls-13 {
        fill: none;
      }

      .cls-7, .cls-14, .cls-15, .cls-16, .cls-17, .cls-18, .cls-19, .cls-20, .cls-21, .cls-22, .cls-23, .cls-24, .cls-25, .cls-26, .cls-27, .cls-28, .cls-29 {
        stroke-width: 0px;
      }

      .cls-30 {
        mask: url(#mask);
      }

      .cls-8 {
        stroke: #6a1b9a;
        stroke-width: 6.46px;
      }

      .cls-8, .cls-11 {
        stroke-miterlimit: 10;
      }

      .cls-9 {
        stroke-width: .55px;
      }

      .cls-9, .cls-10, .cls-11, .cls-12, .cls-13 {
        stroke-linecap: round;
      }

      .cls-9, .cls-10, .cls-12 {
        stroke: #000;
      }

      .cls-9, .cls-10, .cls-12, .cls-13 {
        stroke-linejoin: round;
      }

      .cls-31 {
        clip-path: url(#clippath-1);
      }

      .cls-32 {
        clip-path: url(#clippath-4);
      }

      .cls-33 {
        clip-path: url(#clippath-3);
      }

      .cls-34 {
        clip-path: url(#clippath-2);
      }

      .cls-35 {
        clip-path: url(#clippath-7);
      }

      .cls-36 {
        clip-path: url(#clippath-8);
      }

      .cls-37 {
        clip-path: url(#clippath-6);
      }

      .cls-38 {
        clip-path: url(#clippath-5);
      }

      .cls-39 {
        clip-path: url(#clippath-9);
      }

      .cls-10 {
        stroke-width: .52px;
      }

      .cls-40 {
        clip-path: url(#clippath-20);
      }

      .cls-41 {
        clip-path: url(#clippath-21);
      }

      .cls-42 {
        clip-path: url(#clippath-24);
      }

      .cls-43 {
        clip-path: url(#clippath-23);
      }

      .cls-44 {
        clip-path: url(#clippath-22);
      }

      .cls-45 {
        clip-path: url(#clippath-25);
      }

      .cls-46 {
        clip-path: url(#clippath-44);
      }

      .cls-47 {
        clip-path: url(#clippath-40);
      }

      .cls-48 {
        clip-path: url(#clippath-42);
      }

      .cls-49 {
        clip-path: url(#clippath-41);
      }

      .cls-50 {
        clip-path: url(#clippath-43);
      }

      .cls-51 {
        clip-path: url(#clippath-27);
      }

      .cls-52 {
        clip-path: url(#clippath-28);
      }

      .cls-53 {
        clip-path: url(#clippath-26);
      }

      .cls-54 {
        clip-path: url(#clippath-29);
      }

      .cls-55 {
        clip-path: url(#clippath-34);
      }

      .cls-56 {
        clip-path: url(#clippath-35);
      }

      .cls-57 {
        clip-path: url(#clippath-36);
      }

      .cls-58 {
        clip-path: url(#clippath-37);
      }

      .cls-59 {
        clip-path: url(#clippath-39);
      }

      .cls-60 {
        clip-path: url(#clippath-33);
      }

      .cls-61 {
        clip-path: url(#clippath-32);
      }

      .cls-62 {
        clip-path: url(#clippath-30);
      }

      .cls-63 {
        clip-path: url(#clippath-38);
      }

      .cls-64 {
        clip-path: url(#clippath-31);
      }

      .cls-65 {
        clip-path: url(#clippath-14);
      }

      .cls-66 {
        clip-path: url(#clippath-13);
      }

      .cls-67 {
        clip-path: url(#clippath-12);
      }

      .cls-68 {
        clip-path: url(#clippath-10);
      }

      .cls-69 {
        clip-path: url(#clippath-15);
      }

      .cls-70 {
        clip-path: url(#clippath-17);
      }

      .cls-71 {
        clip-path: url(#clippath-16);
      }

      .cls-72 {
        clip-path: url(#clippath-19);
      }

      .cls-73 {
        clip-path: url(#clippath-11);
      }

      .cls-74 {
        clip-path: url(#clippath-18);
      }

      .cls-11 {
        stroke: #ed712c;
        stroke-width: 8.3px;
      }

      .cls-12 {
        stroke-width: .5px;
      }

      .cls-13 {
        stroke: #fff;
        stroke-width: .65px;
      }

      .cls-75 {
        isolation: isolate;
      }

      .cls-76 {
        mask: url(#mask-3);
      }

      .cls-77 {
        mask: url(#mask-2);
      }

      .cls-78 {
        mask: url(#mask-5);
      }

      .cls-79 {
        mask: url(#mask-4);
      }

      .cls-80 {
        mask: url(#mask-1);
      }

      .cls-81 {
        mask: url(#mask-7);
      }

      .cls-82 {
        mask: url(#mask-6);
      }

      .cls-83 {
        mask: url(#mask-8);
      }

      .cls-84 {
        mask: url(#mask-9);
      }

      .cls-15 {
        fill: #f7e03b;
      }

      .cls-16 {
        fill: #595959;
      }

      .cls-17 {
        fill: #2dc0eb;
      }

      .cls-18 {
        fill: #ce0201;
      }

      .cls-19 {
        fill: #999;
      }

      .cls-20 {
        fill: #9ee5db;
      }

      .cls-21 {
        fill: #fff;
      }

      .cls-22 {
        fill: #fffde9;
      }

      .cls-23 {
        fill: #fbb03b;
      }

      .cls-24 {
        fill: #fcee21;
      }

      .cls-25 {
        fill: #ed712c;
      }

      .cls-26 {
        fill: #e6e6e6;
      }

      .cls-27 {
        fill: #f5b338;
      }

      .cls-28 {
        fill: #00ab4e;
      }

      .cls-29 {
        fill: #0081c9;
      }
    </style>
    <clipPath id="clippath">
      <rect class="cls-7" x="34" y="51" width="95.66" height="87.57"/>
    </clipPath>
    <clipPath id="clippath-1">
      <rect class="cls-7" x="34" y="51" width="95.66" height="87.57"/>
    </clipPath>
    <clipPath id="clippath-2">
      <rect class="cls-7" x="34" y="51" width="95.66" height="87.57"/>
    </clipPath>
    <clipPath id="clippath-3">
      <rect class="cls-7" x="70.77" y="104.32" width="39.18" height="33.78"/>
    </clipPath>
    <mask id="mask" x="54.64" y="72.44" width="59.61" height="65.67" maskUnits="userSpaceOnUse">
      <g>
        <rect class="cls-14" x="70.77" y="104.32" width="39.18" height="33.78"/>
        <g class="cls-75">
          <g class="cls-33">
            <path class="cls-21" d="M107.48,113.13l-19.69,21.27-32.54-31.28c-.46-.45-.69-1.09-.59-1.73l2.89-23.67,7.88-5.28c2.49,1.2,4.92,2.51,7.29,3.92,14.68,8.76,26.74,21.46,34.7,36.65.02.04.04.08.07.13"/>
            <rect class="cls-14" x="87.54" y="96.65" width="26.71" height="36.15"/>
          </g>
        </g>
      </g>
    </mask>
    <clipPath id="clippath-4">
      <rect class="cls-7" x="70.77" y="104.32" width="39.18" height="33.78"/>
    </clipPath>
    <clipPath id="clippath-5">
      <rect class="cls-7" x="56.07" y="92.7" width="18.03" height="45.4"/>
    </clipPath>
    <clipPath id="clippath-6">
      <rect class="cls-7" x="56.07" y="92.7" width="18.08" height="45.4"/>
    </clipPath>
    <mask id="mask-1" x="54.64" y="72.44" width="52.84" height="65.67" maskUnits="userSpaceOnUse">
      <g class="cls-38">
        <rect class="cls-14" x="56.07" y="92.7" width="18.08" height="45.4"/>
        <g class="cls-75">
          <g class="cls-37">
            <path class="cls-21" d="M107.48,113.13l-19.69,21.27-32.54-31.28c-.46-.45-.69-1.09-.59-1.73l2.89-23.67,7.88-5.28c2.49,1.2,4.92,2.51,7.29,3.92,14.68,8.76,26.74,21.46,34.7,36.65.02.04.04.08.07.13"/>
            <polygon class="cls-14" points="59.5 99.82 75.63 105.5 78.47 87.69 60.66 89.88 59.5 99.82"/>
          </g>
        </g>
      </g>
    </mask>
    <clipPath id="clippath-7">
      <rect class="cls-7" x="56.07" y="92.7" width="18.03" height="45.4"/>
    </clipPath>
    <mask id="mask-2" x="35.06" y="51.86" width="42.44" height="30.72" maskUnits="userSpaceOnUse">
      <g>
        <rect class="cls-14" x="35.06" y="51.86" width="42.44" height="30.72"/>
        <g class="cls-75">
          <path class="cls-21" d="M75.94,64.31c0,2.44-.37,4.77-1.03,6.9-2.09,6.67-7.12,11.37-13,11.37-1.69,0-3.31-.39-4.81-1.1h0c-1.96.71-4.14,1.1-6.43,1.1-8.62,0-15.61-5.58-15.61-12.45,0-.64.06-1.28.18-1.9.05-.27.25-.49.51-.58l10.55-3.56,1.59-.54c.06-2.03.38-3.98.92-5.79,0,0,0,0,0,0,.07-.24.19-.45.35-.63,1.67-1.88,3.98-3.38,6.68-4.29,1.87-.63,3.92-.98,6.07-.98,5.42,0,10.2,2.21,13,5.56.67,2.13,1.03,4.46,1.03,6.9"/>
        </g>
      </g>
    </mask>
    <clipPath id="clippath-8">
      <rect class="cls-7" x="35.06" y="51.86" width="42.44" height="30.72"/>
    </clipPath>
    <mask id="mask-3" x="52.54" y="60" width="8.37" height="8.1" maskUnits="userSpaceOnUse">
      <g>
        <rect class="cls-14" x="52.54" y="60" width="8.37" height="8.1"/>
        <g class="cls-75">
          <path class="cls-21" d="M60.91,64.05c0,2.24-1.81,4.05-4.05,4.05s-4.05-1.81-4.05-4.05,1.81-4.05,4.05-4.05,4.05,1.81,4.05,4.05"/>
        </g>
      </g>
    </mask>
    <clipPath id="clippath-9">
      <rect class="cls-7" x="52.54" y="60" width="8.37" height="8.1"/>
    </clipPath>
    <clipPath id="clippath-10">
      <rect class="cls-7" x="53.22" y="74.75" width="23.57" height="10.87"/>
    </clipPath>
    <mask id="mask-4" x="53.22" y="72.44" width="54.26" height="61.96" maskUnits="userSpaceOnUse">
      <g>
        <rect class="cls-14" x="53.22" y="74.75" width="23.57" height="10.87"/>
        <g class="cls-75">
          <g class="cls-68">
            <path class="cls-21" d="M107.48,113.13l-19.69,21.27-32.54-31.28c-.46-.45-.69-1.09-.59-1.73l2.89-23.67,7.88-5.28c2.49,1.2,4.92,2.51,7.29,3.92,14.68,8.76,26.74,21.46,34.7,36.65.02.04.04.08.07.13"/>
          </g>
        </g>
      </g>
    </mask>
    <clipPath id="clippath-11">
      <rect class="cls-7" x="53.22" y="74.75" width="23.57" height="10.87"/>
    </clipPath>
    <clipPath id="clippath-12">
      <rect class="cls-7" y="95" width="157.47" height="44.68"/>
    </clipPath>
    <clipPath id="clippath-13">
      <rect class="cls-7" y="95" width="157.47" height="44.68"/>
    </clipPath>
    <clipPath id="clippath-14">
      <rect class="cls-7" x="111" width="38" height="101.96"/>
    </clipPath>
    <clipPath id="clippath-15">
      <rect class="cls-7" x="111" width="38" height="101.96"/>
    </clipPath>
    <clipPath id="clippath-16">
      <rect class="cls-7" x="118" y="52" width="92.05" height="85.22"/>
    </clipPath>
    <clipPath id="clippath-17">
      <rect class="cls-7" x="118" y="52" width="92.05" height="85.22"/>
    </clipPath>
    <clipPath id="clippath-18">
      <rect class="cls-7" x="118" y="52" width="92.05" height="85.22"/>
    </clipPath>
    <clipPath id="clippath-19">
      <rect class="cls-7" x="131.64" y="99.78" width="29.27" height="41.17"/>
    </clipPath>
    <mask id="mask-5" x="131.64" y="99.61" width="29.27" height="41.34" maskUnits="userSpaceOnUse">
      <g class="cls-72">
        <rect class="cls-14" x="131.64" y="99.61" width="29.27" height="41.34"/>
        <g class="cls-75">
          <path class="cls-21" d="M160.91,100.33v34.97c0,.3-.25.55-.55.55h-18.29c-.32,0-.58-.28-.55-.6v-.41c-.45-14.1,6.58-27.39,18.5-34.94.36-.28.88-.02.88.44"/>
        </g>
      </g>
    </mask>
    <clipPath id="clippath-20">
      <rect class="cls-7" x="131.64" y="99.78" width="29.27" height="41.17"/>
    </clipPath>
    <clipPath id="clippath-21">
      <rect class="cls-7" x="131.64" y="123.6" width="21.08" height="17.35"/>
    </clipPath>
    <mask id="mask-6" x="131.64" y="123.6" width="25.37" height="17.64" maskUnits="userSpaceOnUse">
      <g>
        <rect class="cls-14" x="131.64" y="123.6" width="21.08" height="17.35"/>
        <g class="cls-75">
          <g class="cls-41">
            <rect class="cls-21" x="144.28" y="126.48" width="12.73" height="14.77"/>
          </g>
        </g>
      </g>
    </mask>
    <clipPath id="clippath-22">
      <rect class="cls-7" x="131.64" y="123.6" width="21.08" height="17.35"/>
    </clipPath>
    <clipPath id="clippath-23">
      <rect class="cls-7" x="153.36" y="115.37" width="6.56" height="20.98"/>
    </clipPath>
    <mask id="mask-7" x="153.36" y="115.37" width="14.58" height="21.77" maskUnits="userSpaceOnUse">
      <g>
        <rect class="cls-14" x="153.36" y="115.37" width="6.56" height="20.98"/>
        <g class="cls-75">
          <g class="cls-43">
            <rect class="cls-21" x="155.52" y="117.8" width="12.41" height="19.34"/>
          </g>
        </g>
      </g>
    </mask>
    <clipPath id="clippath-24">
      <rect class="cls-7" x="153.36" y="115.37" width="6.56" height="20.98"/>
    </clipPath>
    <clipPath id="clippath-25">
      <rect class="cls-7" x="152.86" y="98.82" width="12.13" height="8.86"/>
    </clipPath>
    <mask id="mask-8" x="141.5" y="98.82" width="23.49" height="37.02" maskUnits="userSpaceOnUse">
      <g>
        <rect class="cls-14" x="152.86" y="98.82" width="12.13" height="8.86"/>
        <g class="cls-75">
          <g class="cls-45">
            <path class="cls-21" d="M160.91,100.33v34.97c0,.3-.25.55-.55.55h-18.29c-.32,0-.58-.28-.55-.6v-.41c-.45-14.1,6.58-27.39,18.5-34.94.36-.28.88-.02.88.44"/>
          </g>
        </g>
      </g>
    </mask>
    <clipPath id="clippath-26">
      <rect class="cls-7" x="152.86" y="98.82" width="12.13" height="8.86"/>
    </clipPath>
    <clipPath id="clippath-27">
      <rect class="cls-7" x="172.93" y="53.41" width="35.97" height="36.62"/>
    </clipPath>
    <clipPath id="clippath-28">
      <rect class="cls-7" x="172.93" y="53.41" width="35.97" height="36.62"/>
    </clipPath>
    <mask id="mask-9" x="146.05" y="66.11" width="41.83" height="39.81" maskUnits="userSpaceOnUse">
      <g>
        <rect class="cls-14" x="146.05" y="66.11" width="41.83" height="39.81"/>
        <g class="cls-75">
          <path class="cls-21" d="M185.85,86.01c0,10.99-8.91,19.9-19.9,19.9s-19.9-8.91-19.9-19.9,8.91-19.9,19.9-19.9,19.9,8.91,19.9,19.9"/>
        </g>
      </g>
    </mask>
    <clipPath id="clippath-29">
      <rect class="cls-7" x="146.05" y="66.11" width="41.83" height="39.81"/>
    </clipPath>
    <clipPath id="clippath-30">
      <rect class="cls-7" x="119.06" y="58.84" width="37.77" height="32.16"/>
    </clipPath>
    <clipPath id="clippath-31">
      <rect class="cls-7" x="119.06" y="58.84" width="37.77" height="32.16"/>
    </clipPath>
    <clipPath id="clippath-32">
      <rect class="cls-7" x="79" y="56" width="72" height="89.87"/>
    </clipPath>
    <clipPath id="clippath-33">
      <rect class="cls-7" x="79" y="56" width="72" height="89.87"/>
    </clipPath>
    <clipPath id="clippath-34">
      <rect class="cls-7" x="79" y="56" width="72" height="89.87"/>
    </clipPath>
    <clipPath id="clippath-35">
      <rect class="cls-7" x="76.89" y="57.69" width="67.73" height="44.27"/>
    </clipPath>
    <clipPath id="clippath-36">
      <rect class="cls-7" x="71.46" y="20.14" width="78.59" height="81.81"/>
    </clipPath>
    <mask id="mask-10" x="71.46" y="20.14" width="78.59" height="117.85" maskUnits="userSpaceOnUse">
      <g class="cls-56">
        <rect class="cls-14" x="71.46" y="20.14" width="78.59" height="81.81"/>
        <g class="cls-75">
          <g class="cls-57">
            <path class="cls-21" d="M127.77,113.27c0,13.66-7.62,24.73-17.01,24.73s-17.01-11.07-17.01-24.73,7.62-24.73,17.01-24.73,17.01,11.07,17.01,24.73"/>
          </g>
        </g>
      </g>
    </mask>
    <clipPath id="clippath-37">
      <rect class="cls-7" x="76.89" y="57.69" width="67.73" height="44.27"/>
    </clipPath>
    <clipPath id="clippath-38">
      <rect class="cls-7" x="93.19" y="115.88" width="35.13" height="29"/>
    </clipPath>
    <mask id="mask-11" x="84.35" y="88.54" width="52.82" height="56.33" maskUnits="userSpaceOnUse">
      <g>
        <rect class="cls-14" x="93.19" y="115.88" width="35.13" height="29"/>
        <g class="cls-75">
          <g class="cls-63">
            <path class="cls-21" d="M125.5,137.61h0c-2.75-.59-4.51-3.33-3.91-6.07l5.21-24.06c.59-2.75,3.33-4.51,6.07-3.91,2.75.59,4.51,3.33,3.91,6.08l-5.21,24.06c-.59,2.75-3.33,4.51-6.07,3.91"/>
            <path class="cls-21" d="M127.75,131.24h6.23c1.75,0,3.19,1.43,3.19,3.19s-1.43,3.19-3.19,3.19h-6.23c-1.75,0-3.19-1.43-3.19-3.19s1.43-3.19,3.19-3.19"/>
            <path class="cls-21" d="M96.01,137.61h0c2.75-.59,4.51-3.33,3.91-6.07l-5.21-24.06c-.59-2.75-3.33-4.51-6.07-3.91-2.75.59-4.51,3.33-3.91,6.08l5.21,24.06c.59,2.75,3.33,4.51,6.07,3.91"/>
            <path class="cls-21" d="M93.77,131.24h-6.23c-1.75,0-3.19,1.43-3.19,3.19s1.43,3.19,3.19,3.19h6.23c1.75,0,3.19-1.43,3.19-3.19s-1.43-3.19-3.19-3.19"/>
            <path class="cls-21" d="M127.77,113.27c0,13.66-7.62,24.73-17.01,24.73s-17.01-11.07-17.01-24.73,7.62-24.73,17.01-24.73,17.01,11.07,17.01,24.73"/>
          </g>
        </g>
      </g>
    </mask>
    <clipPath id="clippath-39">
      <rect class="cls-7" x="93.19" y="115.88" width="35.13" height="29"/>
    </clipPath>
    <clipPath id="clippath-40">
      <rect class="cls-7" x="93.19" y="115.88" width="9.25" height="29"/>
    </clipPath>
    <mask id="mask-12" x="90.44" y="115.88" width="28.61" height="37.03" maskUnits="userSpaceOnUse">
      <g>
        <rect class="cls-14" x="93.19" y="115.88" width="9.25" height="29"/>
        <g class="cls-75">
          <g class="cls-47">
            <rect class="cls-21" x="90.44" y="122.15" width="28.61" height="30.76"/>
          </g>
        </g>
      </g>
    </mask>
    <clipPath id="clippath-41">
      <rect class="cls-7" x="93.19" y="115.88" width="9.25" height="29"/>
    </clipPath>
    <clipPath id="clippath-42">
      <rect class="cls-7" x="119.21" y="115.88" width="9.11" height="29"/>
    </clipPath>
    <mask id="mask-13" x="102.89" y="115.88" width="27.56" height="37.03" maskUnits="userSpaceOnUse">
      <g>
        <rect class="cls-14" x="119.21" y="115.88" width="9.11" height="29"/>
        <g class="cls-75">
          <g class="cls-48">
            <rect class="cls-21" x="102.89" y="122.15" width="27.56" height="30.76"/>
          </g>
        </g>
      </g>
    </mask>
    <clipPath id="clippath-43">
      <rect class="cls-7" x="119.21" y="115.88" width="9.12" height="29"/>
    </clipPath>
    <mask id="mask-14" x="75.57" y="51.28" width="71.94" height="47.45" maskUnits="userSpaceOnUse">
      <g>
        <rect class="cls-14" x="75.57" y="51.28" width="71.94" height="47.45"/>
        <g class="cls-75">
          <path class="cls-21" d="M131.29,71.67c-9.93-14.34-31.13-14.34-41.06,0l-9.26,13.38c7.21,8.37,17.88,13.67,29.79,13.67s22.58-5.3,29.79-13.67l-9.26-13.38Z"/>
        </g>
      </g>
    </mask>
    <clipPath id="clippath-44">
      <rect class="cls-7" x="75.57" y="51.28" width="71.94" height="47.45"/>
    </clipPath>
  </defs>
  <g id="Layer_1-2" data-name="Layer 1">
    <g id="Black_Lab" data-name="Black Lab">
      <g class="cls-6">
        <g class="cls-31">
          <g class="cls-34">
            <path class="cls-14" d="M128.26,108.17c-1.79,12.72-12.08,22.14-24.32,23.33-2.4.23-4.38-1.85-4.05-4.23.26-1.83,1.81-3.19,3.65-3.21,11.98-.12,22.4-8.98,24.12-21.21.21-1.46.28-2.91.23-4.33.68,3.09.83,6.34.37,9.66"/>
            <path class="cls-14" d="M107.48,113.13l-19.69,21.27-32.54-31.28c-.46-.45-.68-1.09-.59-1.73l2.89-23.67,7.88-5.28c2.49,1.2,4.92,2.51,7.29,3.92,14.68,8.76,26.74,21.46,34.7,36.65.02.04.04.08.07.13"/>
            <path class="cls-14" d="M93.06,104.71c-9.11,0-16.5,7.39-16.5,16.5,0,4.52,1.82,8.61,4.76,11.59h-7.7c-1.36,0-2.46,1.1-2.46,2.46s1.1,2.46,2.46,2.46h19.71c8.99-.14,16.24-7.48,16.24-16.5s-7.39-16.5-16.5-16.5"/>
            <g class="cls-30">
              <g class="cls-32">
                <path class="cls-21" d="M93.06,104.71c9.11,0,16.5,7.39,16.5,16.5s-7.25,16.36-16.24,16.5h0s-22.16,0-22.16,0v-1.2c0-2.04,1.67-3.71,3.71-3.71h6.44c-2.94-2.98-4.76-7.07-4.76-11.59,0-9.11,7.39-16.5,16.5-16.5M93.06,104.32c-4.51,0-8.75,1.76-11.94,4.95-3.19,3.19-4.95,7.43-4.95,11.94,0,4.17,1.5,8.11,4.25,11.2h-5.55c-2.26,0-4.1,1.84-4.1,4.1v1.59h22.94c4.31-.18,8.34-1.95,11.38-5.04,3.13-3.18,4.86-7.39,4.86-11.85s-1.76-8.75-4.95-11.94c-3.19-3.19-7.43-4.95-11.94-4.95"/>
              </g>
            </g>
            <path class="cls-14" d="M68.01,93.09c-3.15,0-5.71,2.56-5.71,5.71v34h-3.38c-1.36,0-2.46,1.1-2.46,2.46s1.1,2.46,2.46,2.46h9.22l5.52-38.1c.5-3.44-2.17-6.53-5.65-6.53"/>
            <g class="cls-80">
              <g class="cls-35">
                <path class="cls-21" d="M68.01,93.09c3.48,0,6.15,3.08,5.65,6.53l-5.52,38.1h-11.68v-1.2c0-2.04,1.67-3.71,3.71-3.71h2.13v-34c0-3.15,2.56-5.71,5.71-5.71ZM68.01,92.7c-3.36,0-6.1,2.74-6.1,6.1v33.61h-1.74c-2.26,0-4.1,1.84-4.1,4.1v1.59h12.4l.05-.33,5.52-38.1c.25-1.75-.27-3.53-1.42-4.86-1.16-1.34-2.84-2.11-4.61-2.11"/>
              </g>
            </g>
            <g class="cls-77">
              <g class="cls-36">
                <path class="cls-14" d="M75.94,64.31c0,2.44-.37,4.77-1.03,6.9-2.09,6.67-7.12,11.37-13,11.37-1.69,0-3.31-.39-4.81-1.1h0c-1.96.71-4.14,1.1-6.43,1.1-8.62,0-15.61-5.58-15.61-12.45,0-.64.06-1.28.18-1.9.05-.27.25-.49.51-.58l10.55-3.56,1.59-.54c.06-2.03.38-3.98.92-5.79,0,0,0,0,0,0,.07-.24.19-.45.35-.63,1.67-1.88,3.98-3.38,6.68-4.29,1.87-.63,3.92-.98,6.07-.98,5.42,0,10.2,2.21,13,5.56.67,2.13,1.03,4.46,1.03,6.9"/>
                <g class="cls-76">
                  <g class="cls-39">
                    <path class="cls-21" d="M60.91,64.05c0,2.24-1.81,4.05-4.05,4.05s-4.05-1.81-4.05-4.05,1.81-4.05,4.05-4.05,4.05,1.81,4.05,4.05"/>
                    <path class="cls-14" d="M59.5,64.37c0,1.92-1.56,3.48-3.48,3.48s-3.48-1.56-3.48-3.48,1.56-3.48,3.48-3.48,3.48,1.56,3.48,3.48"/>
                    <path class="cls-21" d="M58.72,63.67c0,.96-.78,1.74-1.74,1.74s-1.74-.78-1.74-1.74.78-1.74,1.74-1.74,1.74.78,1.74,1.74"/>
                  </g>
                </g>
                <path class="cls-16" d="M40.14,66.16l-4.4,1.49c-.26.09-.46.31-.51.58-.12.62-.18,1.25-.18,1.9,0,1.8.48,3.51,1.34,5.05,2.29-2.32,3.71-5.5,3.75-9.02"/>
                <path class="cls-16" d="M77.5,53.78c0,7.98-3,15.25-7.93,20.76-4.37-5.36-6.99-12.21-6.99-19.66,0-1.02.05-2.03.14-3.02h14.72c.04.64.06,1.28.06,1.92"/>
                <path class="cls-16" d="M77.5,53.78c0,7.98-3,15.25-7.93,20.76-4.37-5.36-6.99-12.21-6.99-19.66,0-1.02.05-2.03.14-3.02h14.72c.04.64.06,1.28.06,1.92"/>
              </g>
            </g>
            <g class="cls-79">
              <g class="cls-73">
                <polygon class="cls-29" points="53.22 85.63 76.79 77.6 76.79 74.75 53.22 82.78 53.22 85.63"/>
              </g>
            </g>
            <path class="cls-13" d="M56.85,75.45c-.33.66-.86,1.24-1.57,1.61-.7.38-1.48.5-2.21.41"/>
            <path class="cls-23" d="M58.39,84.99c-.18,1.11-.89,1.91-1.59,1.8-.7-.11-1.11-1.1-.93-2.21.18-1.11.89-1.91,1.59-1.8.7.11,1.11,1.1.93,2.21"/>
            <rect class="cls-23" x="54.82" y="84.45" width="4.06" height=".57" transform="translate(-35.98 127.1) rotate(-80.67)"/>
            <path class="cls-24" d="M57.83,84.9c-.18,1.11-.89,1.91-1.59,1.8-.7-.11-1.11-1.1-.93-2.21.18-1.11.89-1.91,1.59-1.8.7.11,1.11,1.1.93,2.21"/>
          </g>
        </g>
      </g>
    </g>
    <g id="Green_Snake" data-name="Green Snake">
      <g class="cls-67">
        <g class="cls-66">
          <path class="cls-28" d="M152.95,134.86c-5.56.42-11.11.72-16.67.99-1.25.07-2.51,0-3.75-.21-6.3-1.1-9.85-6.05-12.2-11.53-.88-2.01-1.66-4.03-2.52-5.94-1.25-2.58-2.37-4.95-4.95-5.23-2.59-.22-3.98.39-5.26,2.69-1.88,3.38-2.76,7.61-4.69,11.59-.88,1.87-2.15,3.99-3.71,5.61-3,3.26-7.4,4.92-11.71,4.88-5.41.07-10.23-2.32-13.42-6.76-1.6-2.16-2.79-4.76-3.76-7.15-.81-1.97-1.51-3.95-2.35-5.75-.47-1-.98-1.98-1.65-2.8-.71-.89-1.54-1.21-2.72-1.19-.67,0-1.4.07-1.97.43-.49.33-.83.78-1.18,1.31-.61.98-1.04,1.92-1.53,3.14-1.09,2.76-2.33,6.71-3.92,9.67-3.16,6.21-8.71,10.05-15.88,9.99-6.28.04-11.47-2.99-14.75-8.19-1.45-2.21-2.53-4.81-3.45-7.17-.9-2.27-1.62-4.49-2.75-6.5-.44-.74-.91-1.54-1.68-1.9-.37-.14-.83-.21-1.25-.21,0,0-6.34,0-6.35,0-9.61-.38-9.68-14.14,0-14.54h3.25c1.3,0,2.77-.02,4.04.03,6.51.32,11.53,3.9,14.6,9.54,2.09,3.72,3.11,7.6,4.63,11.08.51,1.14,1.22,2.62,2.15,3.29.4.28.96.37,1.46.4.67.03,1.37.01,1.95-.29.99-.58,1.7-2,2.27-3.17,1.51-3.28,2.76-7.44,4.71-10.89,2.33-4.26,6.04-7.72,10.89-8.88,4.7-1.12,9.87-.52,13.98,2.26,4.36,2.92,6.68,7.95,8.34,12.67.97,2.48,2.34,7.47,4.48,8.78.84.51,2.48.53,3.41.32,1.59-.39,2.36-1.82,3.16-3.27,1.25-2.41,2.41-5.91,3.7-8.73,2.24-5.08,5.84-9.57,11.57-10.92,4-.92,8.25-.54,11.9,1.49,9.36,5.29,8.6,18.38,13.5,22.39.89.69,2.05.95,3.18,1.01,5.63.28,11.25.58,16.87,1,4.04.41,4.12,6.19,0,6.64"/>
          <path class="cls-10" d="M14.93,109.28c-.71.51-1.58.8-2.52.8s-1.81-.3-2.52-.8"/>
          <path class="cls-21" d="M12.15,100.42c0,2.16-1.75,3.92-3.92,3.92s-3.92-1.75-3.92-3.92,1.75-3.92,3.92-3.92,3.92,1.75,3.92,3.92"/>
          <path class="cls-21" d="M20.51,100.22c0,2.16-1.75,3.92-3.92,3.92s-3.92-1.75-3.92-3.92,1.75-3.92,3.92-3.92,3.92,1.75,3.92,3.92"/>
          <path class="cls-14" d="M11.2,100.42c0,1.64-1.33,2.97-2.97,2.97s-2.97-1.33-2.97-2.97,1.33-2.97,2.97-2.97,2.97,1.33,2.97,2.97"/>
          <path class="cls-21" d="M10.18,99.42c0,.71-.58,1.29-1.29,1.29s-1.29-.58-1.29-1.29.58-1.29,1.29-1.29,1.29.58,1.29,1.29"/>
          <path class="cls-14" d="M19.57,100.22c0,1.64-1.33,2.97-2.97,2.97s-2.97-1.33-2.97-2.97,1.33-2.97,2.97-2.97,2.97,1.33,2.97,2.97"/>
          <path class="cls-21" d="M18.95,99.42c0,.71-.58,1.29-1.29,1.29s-1.29-.58-1.29-1.29.58-1.29,1.29-1.29,1.29.58,1.29,1.29"/>
        </g>
      </g>
    </g>
    <g id="Cockatoo">
      <g class="cls-65">
        <g class="cls-69">
          <path class="cls-29" d="M139.59,100.59v-45.06c0-2.87-2.35-5.23-5.23-5.23s-5.23,2.35-5.23,5.23v39.67l10.45,5.4Z"/>
          <rect class="cls-14" x="111.9" y="84.65" width="36.36" height="1.94"/>
          <path class="cls-25" d="M127.27,82.42h-2.77c-.61,0-1.11.5-1.11,1.11s.5,1.11,1.11,1.11h2.77c.61,0,1.11-.5,1.11-1.11s-.5-1.11-1.11-1.11"/>
          <rect class="cls-25" x="126.71" y="76.29" width="1.67" height="7.25"/>
          <polygon class="cls-25" points="123.39 85.77 123.39 83.54 124.87 83.54 123.39 85.77"/>
          <polygon class="cls-25" points="124.02 85.77 124.02 83.54 125.51 83.54 124.02 85.77"/>
          <polygon class="cls-25" points="124.66 85.77 124.66 83.54 126.15 83.54 124.66 85.77"/>
          <path class="cls-25" d="M133.64,82.42h-2.77c-.61,0-1.11.5-1.11,1.11s.5,1.11,1.11,1.11h2.77c.61,0,1.11-.5,1.11-1.11s-.5-1.11-1.11-1.11"/>
          <rect class="cls-25" x="133.12" y="76.29" width="1.67" height="7.25"/>
          <polygon class="cls-25" points="129.76 85.77 129.76 83.54 131.25 83.54 129.76 85.77"/>
          <polygon class="cls-25" points="130.4 85.77 130.4 83.54 131.89 83.54 130.4 85.77"/>
          <polygon class="cls-25" points="131.04 85.77 131.04 83.54 132.52 83.54 131.04 85.77"/>
          <polygon class="cls-29" points="139.52 34.86 135.61 34.86 135.61 26 139.52 14.52 139.52 34.86"/>
          <polygon class="cls-29" points="128.47 34.1 132.39 34.1 132.39 25.24 128.47 13.76 128.47 34.1"/>
          <polygon class="cls-29" points="135.61 34.86 131.69 34.86 131.69 23.17 135.61 1.06 135.61 34.86"/>
          <path class="cls-17" d="M125.63,21.78h0c-1.28,0-2.52.18-3.7.5v49.24c0,4.86,3.97,8.83,8.83,8.83s8.83-3.97,8.83-8.83v-35.78c0-7.68-6.28-13.96-13.96-13.96"/>
          <path class="cls-25" d="M121.14,35.46c.27,0,.53-.02.79-.06v-2.61h-5.15c.81,1.58,2.46,2.67,4.36,2.67"/>
          <path class="cls-25" d="M121.93,22.28c-4.97,1.37-8.84,5.44-9.95,10.51h9.95v-10.51Z"/>
          <path class="cls-21" d="M135.61,30.56c0,3.14-2.54,5.68-5.68,5.68s-5.68-2.54-5.68-5.68,2.54-5.68,5.68-5.68,5.68,2.54,5.68,5.68"/>
          <path class="cls-14" d="M134.23,30.56c0,2.38-1.93,4.3-4.3,4.3s-4.3-1.93-4.3-4.3,1.93-4.3,4.3-4.3,4.3,1.93,4.3,4.3"/>
          <path class="cls-21" d="M133.34,29.41c0,1.04-.84,1.88-1.88,1.88s-1.88-.84-1.88-1.88.84-1.88,1.88-1.88,1.88.84,1.88,1.88"/>
          <path class="cls-29" d="M142.5,72.13v-27.64c0-2.87-2.35-5.23-5.23-5.23s-5.23,2.35-5.23,5.23v22.24l10.45,5.4Z"/>
        </g>
      </g>
    </g>
    <g id="Chihuahua">
      <g class="cls-71">
        <g class="cls-70">
          <g class="cls-74">
            <path class="cls-25" d="M145.47,129.84l-1.03,3.38c-3.98-1.45-7.54-3.77-10.46-6.72,3.46,1.87,7.35,3.05,11.49,3.34"/>
            <path class="cls-25" d="M159.88,135.84h3.21c.64,0,1.17-.53,1.17-1.17v-.28c0-.64-.53-1.17-1.17-1.17h-3.21c-.64,0-1.17.53-1.17,1.17v.28c0,.64.53,1.17,1.17,1.17"/>
            <g class="cls-78">
              <g class="cls-40">
                <path class="cls-25" d="M160.91,100.33v34.97c0,.3-.25.55-.55.55h-18.29c-.32,0-.58-.28-.55-.6v-.41c-.45-14.1,6.58-27.39,18.5-34.94.36-.28.88-.02.88.43"/>
                <path class="cls-25" d="M151.05,133.22h-2.62c.04-.31.06-.62.06-.94,0-4.51-3.66-8.17-8.17-8.17s-8.17,3.66-8.17,8.17,3.66,8.17,8.17,8.17c3.24,0,6.04-1.88,7.36-4.62.05,0,.1.01.16.01h3.21c.64,0,1.17-.53,1.17-1.17v-.28c0-.64-.53-1.17-1.17-1.17"/>
                <g class="cls-82">
                  <g class="cls-44">
                    <path class="cls-14" d="M140.32,124.1c4.51,0,8.17,3.66,8.17,8.17,0,.32-.02.63-.06.94h2.62c.64,0,1.17.53,1.17,1.17v.28c0,.64-.53,1.17-1.17,1.17h-3.21c-.05,0-.11,0-.16-.01-1.32,2.73-4.12,4.62-7.36,4.62-4.51,0-8.17-3.66-8.17-8.17s3.66-8.17,8.17-8.17M140.32,123.6c-4.78,0-8.67,3.89-8.67,8.67s3.89,8.67,8.67,8.67c1.66,0,3.28-.47,4.67-1.36,1.26-.81,2.29-1.92,2.99-3.24h3.07c.92,0,1.67-.75,1.67-1.67v-.28c0-.92-.75-1.67-1.67-1.67h-2.07c0-.15.01-.3.01-.44,0-4.78-3.89-8.67-8.67-8.67"/>
                  </g>
                </g>
                <path class="cls-25" d="M155.03,135.84h3.21c.64,0,1.17-.53,1.17-1.17v-.28c0-.64-.53-1.17-1.17-1.17h-3.21c-.64,0-1.17.53-1.17,1.17v.28c0,.64.53,1.17,1.17,1.17"/>
                <path class="cls-25" d="M155.25,115.87h0c.77,0,1.39.62,1.39,1.39v17.27h-2.78v-17.27c0-.77.62-1.39,1.39-1.39"/>
                <g class="cls-81">
                  <g class="cls-42">
                    <path class="cls-14" d="M155.25,115.87c.77,0,1.39.62,1.39,1.39v15.96h1.61c.64,0,1.17.53,1.17,1.17v.28c0,.64-.53,1.17-1.17,1.17h-3.21c-.64,0-1.17-.53-1.17-1.17v-17.41c0-.77.62-1.39,1.39-1.39M155.25,115.37c-1.04,0-1.89.85-1.89,1.89v17.41c0,.92.75,1.67,1.67,1.67h3.21c.92,0,1.67-.75,1.67-1.67v-.28c0-.92-.75-1.67-1.67-1.67h-1.11v-15.46c0-1.04-.85-1.89-1.89-1.89"/>
                  </g>
                </g>
              </g>
            </g>
            <g class="cls-83">
              <g class="cls-53">
                <rect class="cls-18" x="156.39" y="97.74" width="5.07" height="11.03" transform="translate(3.33 211.46) rotate(-67.83)"/>
              </g>
            </g>
            <path class="cls-19" d="M162.32,107.52c0,.94-.68,1.71-1.52,1.71s-1.52-.76-1.52-1.71.68-1.71,1.52-1.71,1.52.76,1.52,1.71"/>
            <rect class="cls-19" x="160.81" y="105.81" width=".27" height="3.41"/>
            <path class="cls-26" d="M162.6,107.52c0,.94-.68,1.71-1.52,1.71s-1.52-.76-1.52-1.71.68-1.71,1.52-1.71,1.52.76,1.52,1.71"/>
            <g class="cls-51">
              <g class="cls-52">
                <path class="cls-25" d="M207.42,53.47c.91-.32,1.76.59,1.39,1.47l-1.3,3.04-26.34,9.32c-1.92.68-3.08,2.63-2.77,4.64.71,4.57,2.18,8.98,4.36,13.06l1.66,3.11c-.97.67-1.97,1.31-2.98,1.92l-4.09-7.66c-2.18-4.07-3.65-8.49-4.36-13.05-.31-2.01.85-3.96,2.77-4.64l31.67-11.2Z"/>
                <path class="cls-27" d="M207.51,57.99l-1.7,4.01c-4.5,10.59-11.93,19.64-21.39,26.12l-1.66-3.11c-2.18-4.07-3.65-8.49-4.36-13.06-.31-2.01.85-3.96,2.77-4.64l26.34-9.32Z"/>
              </g>
            </g>
            <g class="cls-84">
              <g class="cls-54">
                <path class="cls-25" d="M185.85,86.01c0,10.99-8.91,19.9-19.9,19.9s-19.9-8.91-19.9-19.9,8.91-19.9,19.9-19.9,19.9,8.91,19.9,19.9"/>
                <path class="cls-21" d="M168.3,88.6c0,4.11-3.33,7.45-7.45,7.45s-7.45-3.33-7.45-7.45,3.33-7.45,7.45-7.45,7.45,3.33,7.45,7.45"/>
                <path class="cls-21" d="M187.87,88.21c0,4.11-3.33,7.45-7.45,7.45s-7.45-3.33-7.45-7.45,3.33-7.45,7.45-7.45,7.45,3.33,7.45,7.45"/>
                <path class="cls-14" d="M167,90.11c0,3.12-2.53,5.65-5.65,5.65s-5.65-2.53-5.65-5.65,2.53-5.65,5.65-5.65,5.65,2.53,5.65,5.65"/>
                <path class="cls-21" d="M165.06,88.2c0,1.36-1.1,2.46-2.46,2.46s-2.46-1.1-2.46-2.46,1.1-2.46,2.46-2.46,2.46,1.1,2.46,2.46"/>
                <path class="cls-14" d="M186.57,89.71c0,3.12-2.53,5.65-5.65,5.65s-5.65-2.53-5.65-5.65,2.53-5.65,5.65-5.65,5.65,2.53,5.65,5.65"/>
                <path class="cls-21" d="M185.4,88.2c0,1.36-1.1,2.46-2.46,2.46s-2.46-1.1-2.46-2.46,1.1-2.46,2.46-2.46,2.46,1.1,2.46,2.46"/>
                <path class="cls-27" d="M167.5,95.52l-2.76,2.19c-1.36,1.08-1.07,3.31.52,3.97,3.49,1.43,7.36,1.43,10.85,0,1.59-.65,1.88-2.89.52-3.97l-2.76-2.19c-1.88-1.49-4.48-1.49-6.36,0"/>
                <path class="cls-14" d="M172.78,96.79c0,.89-.72,1.61-1.61,1.61s-1.61-.72-1.61-1.61.72-1.61,1.61-1.61,1.61.72,1.61,1.61"/>
                <path class="cls-12" d="M172.78,100.62c-.46.32-1.01.52-1.61.52s-1.16-.19-1.61-.52"/>
              </g>
            </g>
            <g class="cls-62">
              <g class="cls-64">
                <path class="cls-25" d="M156.83,69.23c0,4.62-.78,9.21-2.31,13.57l-2.87,8.2c-.88-.36-1.75-.74-2.61-1.14l.34-.98c1.53-4.36,2.31-8.95,2.31-13.57,0-2.03-1.45-3.78-3.45-4.16l-25.38-4.78-3.63-5.85c-.51-.82.2-1.85,1.14-1.67l33.01,6.22c2,.38,3.45,2.12,3.45,4.16"/>
                <path class="cls-27" d="M151.69,75.32c0,4.62-.78,9.21-2.31,13.57l-.34.98c-10.61-4.93-19.57-12.86-25.77-22.83l-.41-.66,25.38,4.78c2,.38,3.45,2.12,3.45,4.16"/>
              </g>
            </g>
          </g>
        </g>
      </g>
    </g>
    <g id="Calico_Cat_1" data-name="Calico Cat 1">
      <g class="cls-61">
        <g class="cls-60">
          <g class="cls-55">
            <path class="cls-11" d="M143.43,99.46c1.34,2.5,2.1,5.35,2.1,8.38,0,9.81-7.95,17.76-17.76,17.76"/>
            <path class="cls-22" d="M125.5,137.61h0c-2.75-.59-4.51-3.33-3.91-6.07l5.21-24.06c.59-2.75,3.33-4.51,6.07-3.91s4.51,3.33,3.91,6.07l-5.21,24.06c-.59,2.75-3.33,4.51-6.07,3.91"/>
            <path class="cls-22" d="M127.75,131.24h6.23c1.75,0,3.19,1.43,3.19,3.19s-1.43,3.19-3.19,3.19h-6.23c-1.75,0-3.19-1.43-3.19-3.19s1.43-3.19,3.19-3.19"/>
            <path class="cls-22" d="M96.01,137.61h0c2.75-.59,4.51-3.33,3.91-6.07l-5.21-24.06c-.59-2.75-3.33-4.51-6.07-3.91-2.75.59-4.51,3.33-3.91,6.07l5.21,24.06c.59,2.75,3.33,4.51,6.07,3.91"/>
            <path class="cls-22" d="M93.77,131.24h-6.23c-1.75,0-3.19,1.43-3.19,3.19s1.43,3.19,3.19,3.19h6.23c1.75,0,3.19-1.43,3.19-3.19s-1.43-3.19-3.19-3.19"/>
            <path class="cls-22" d="M127.77,113.27c0,13.66-7.62,24.73-17.01,24.73s-17.01-11.07-17.01-24.73,7.62-24.73,17.01-24.73,17.01,11.07,17.01,24.73"/>
            <path class="cls-16" d="M120.17,105.76c0,9.35-4.22,16.93-9.42,16.93s-9.42-7.58-9.42-16.93,4.22-16.93,9.42-16.93,9.42,7.58,9.42,16.93"/>
            <g class="cls-5">
              <g class="cls-58">
                <path class="cls-8" d="M131.29,71.67c-9.93-14.34-31.13-14.34-41.06,0l-9.26,13.38c7.21,8.37,17.88,13.67,29.79,13.67s22.58-5.3,29.79-13.67l-9.26-13.38Z"/>
              </g>
            </g>
            <path class="cls-22" d="M97.82,144.32h0c-2.24,0-4.07-1.83-4.07-4.07v-27.38h8.15v27.38c0,2.24-1.83,4.07-4.07,4.07"/>
            <path class="cls-22" d="M123.77,144.32h0c-2.2,0-4-1.8-4-4v-27.45h8.01v27.45c0,2.2-1.8,4-4,4"/>
            <g class="cls-4">
              <g class="cls-59">
                <g class="cls-3">
                  <g class="cls-49">
                    <path class="cls-14" d="M101.89,116.43v23.82c0,2.24-1.83,4.07-4.07,4.07s-4.07-1.83-4.07-4.07v-23.82h8.15ZM102.45,115.88h-9.25v24.37c0,2.55,2.08,4.63,4.63,4.63s4.63-2.08,4.63-4.63v-24.37Z"/>
                  </g>
                </g>
                <g class="cls-2">
                  <g class="cls-50">
                    <path class="cls-14" d="M127.77,116.43v23.89c0,2.2-1.8,4-4,4s-4-1.8-4-4v-23.89h8.01ZM128.32,115.88h-9.12v24.44c0,2.51,2.04,4.56,4.56,4.56s4.56-2.04,4.56-4.56v-24.44Z"/>
                  </g>
                </g>
              </g>
            </g>
            <path class="cls-15" d="M113.14,103.26c0,1.67-1.07,3.03-2.39,3.03s-2.39-1.36-2.39-3.03,1.07-3.03,2.39-3.03,2.39,1.36,2.39,3.03"/>
            <path class="cls-25" d="M127.69,79.82c3.09-4.49,4.9-9.93,4.9-15.79,0-2.26-.27-4.46-.78-6.57-6.73,1.11-12.65,4.63-16.84,9.65l12.72,12.72Z"/>
            <path class="cls-15" d="M126.45,78.59c2.79-4.16,4.42-9.17,4.42-14.56,0-1.43-.12-2.83-.34-4.19-4.54,3.08-8.13,7.46-10.22,12.61l6.14,6.14Z"/>
            <path class="cls-14" d="M106.55,67.11c-4.19-5.01-10.11-8.54-16.84-9.65-.51,2.11-.78,4.31-.78,6.57,0,5.86,1.81,11.3,4.9,15.79l12.72-12.72Z"/>
            <path class="cls-15" d="M101.2,72.45c-2.09-5.15-5.68-9.54-10.22-12.61-.22,1.37-.34,2.76-.34,4.19,0,5.39,1.63,10.4,4.42,14.56l6.14-6.14Z"/>
            <g class="cls-1">
              <g class="cls-46">
                <path class="cls-22" d="M131.29,71.67c-9.93-14.34-31.13-14.34-41.06,0l-9.26,13.38c7.21,8.37,17.88,13.67,29.79,13.67s22.58-5.3,29.79-13.67l-9.26-13.38Z"/>
                <path class="cls-25" d="M147.51,76.18c0,10.49-8.51,19-19,19s-19-8.51-19-19,8.51-19,19-19,19,8.51,19,19"/>
                <path class="cls-14" d="M104.35,65.67c0,7.95-6.44,14.39-14.39,14.39s-14.39-6.44-14.39-14.39,6.44-14.39,14.39-14.39,14.39,6.44,14.39,14.39"/>
              </g>
            </g>
            <path class="cls-9" d="M113.41,94.54c-.75.53-1.67.85-2.66.85s-1.91-.31-2.66-.85"/>
            <path class="cls-14" d="M111.33,92.41l1.09-1.28c.41-.48.07-1.23-.57-1.23h-2.18c-.63,0-.98.74-.57,1.23l1.09,1.28c.3.35.84.35,1.13,0"/>
            <path class="cls-20" d="M108.18,80.77c0,4.54-3.68,8.21-8.21,8.21s-8.21-3.68-8.21-8.21,3.68-8.21,8.21-8.21,8.21,3.68,8.21,8.21"/>
            <path class="cls-20" d="M129.76,80.33c0,4.54-3.68,8.21-8.21,8.21s-8.21-3.68-8.21-8.21,3.68-8.21,8.21-8.21,8.21,3.68,8.21,8.21"/>
            <path class="cls-14" d="M106.2,80.77c0,3.44-2.79,6.23-6.23,6.23s-6.23-2.79-6.23-6.23,2.79-6.23,6.23-6.23,6.23,2.79,6.23,6.23"/>
            <path class="cls-21" d="M104.06,78.67c0,1.5-1.22,2.71-2.71,2.71s-2.71-1.22-2.71-2.71,1.22-2.71,2.71-2.71,2.71,1.22,2.71,2.71"/>
            <path class="cls-14" d="M127.77,80.33c0,3.44-2.79,6.23-6.23,6.23s-6.23-2.79-6.23-6.23,2.79-6.23,6.23-6.23,6.23,2.79,6.23,6.23"/>
            <path class="cls-21" d="M126.48,78.67c0,1.5-1.22,2.71-2.71,2.71s-2.71-1.22-2.71-2.71,1.22-2.71,2.71-2.71,2.71,1.22,2.71,2.71"/>
          </g>
        </g>
      </g>
    </g>
  </g>
</svg>