<?xml version="1.0" encoding="UTF-8"?>
<svg id="Layer_2" data-name="Layer 2" xmlns="http://www.w3.org/2000/svg" xmlns:xlink="http://www.w3.org/1999/xlink" viewBox="0 0 387 217.69">
  <defs>
    <style>
      .cls-1 {
        clip-path: url(#clippath);
      }

      .cls-2 {
        fill: none;
      }

      .cls-2, .cls-3, .cls-4 {
        stroke-width: 0px;
      }

      .cls-5 {
        clip-path: url(#clippath-1);
      }

      .cls-6 {
        clip-path: url(#clippath-2);
      }

      .cls-3 {
        fill: #fff;
      }

      .cls-4 {
        fill: #0068b1;
      }
    </style>
    <clipPath id="clippath">
      <rect class="cls-2" width="387" height="217.69"/>
    </clipPath>
    <clipPath id="clippath-1">
      <rect class="cls-2" width="387" height="217.69"/>
    </clipPath>
    <clipPath id="clippath-2">
      <rect class="cls-2" x="36.71" y="13.1" width="146.85" height="34.14"/>
    </clipPath>
  </defs>
  <g id="Layer_1-2" data-name="Layer 1">
    <g id="PETSv23_Logo_Lockup1_Blue_CMYK">
      <g class="cls-1">
        <g class="cls-5">
          <path class="cls-4" d="M85.04,51.43c-4.56-2.15-10.11-3.24-16.5-3.24h-22.57c-2.41,0-4.37,1.96-4.37,4.37v66.86c0,2.41,1.96,4.37,4.37,4.37h14.51c2.41,0,4.37-1.96,4.37-4.37v-16.23c0-1.03.84-1.86,1.86-1.86h2.15c5.61,0,10.75-1.09,15.26-3.24,4.56-2.17,8.23-5.38,10.89-9.54,2.66-4.17,4.01-9.11,4.01-14.7,0-5.01-1.18-9.5-3.51-13.33-2.34-3.85-5.87-6.91-10.48-9.08M75.14,74.38c0,2.41-.7,4.33-2.13,5.86-1.41,1.51-3.47,2.24-6.29,2.24-1.03,0-1.86-.84-1.86-1.86v-11.82c0-1.03.84-1.86,1.86-1.86h.43c2.43,0,4.34.64,5.84,1.95,1.45,1.27,2.15,3.07,2.15,5.51"/>
          <path class="cls-4" d="M154.76,119.42v-9.67c0-2.41-1.96-4.37-4.37-4.37h-21.61c-1.03,0-1.86-.84-1.86-1.86v-6.66c0-1.03.84-1.86,1.86-1.86h19.13c2.41,0,4.37-1.96,4.37-4.37v-9.78c0-2.41-1.96-4.37-4.37-4.37h-19.13c-1.03,0-1.86-.84-1.86-1.86v-6.13c0-1.03.84-1.86,1.86-1.86h21.18c2.41,0,4.37-1.96,4.37-4.37v-9.67c0-2.41-1.96-4.37-4.37-4.37h-41.92c-2.41,0-4.37,1.96-4.37,4.37v66.86c0,2.41,1.96,4.37,4.37,4.37h42.35c2.41,0,4.37-1.96,4.37-4.37"/>
          <path class="cls-4" d="M177.09,119.42c0,2.41,1.96,4.37,4.37,4.37h14.51c2.41,0,4.37-1.96,4.37-4.37v-50.73c0-1.03.84-1.86,1.86-1.86h12.36c2.41,0,4.37-1.96,4.37-4.37v-9.89c0-2.41-1.96-4.37-4.37-4.37h-51.59c-2.41,0-4.37,1.96-4.37,4.37v9.89c0,2.41,1.96,4.37,4.37,4.37h12.25c1.03,0,1.86.84,1.86,1.86v50.73Z"/>
          <path class="cls-4" d="M242.76,104.95c-4.37,0-9.33-1.02-14.72-3.04-.49-.18-1-.28-1.52-.28-2.4,0-4.36,1.96-4.36,4.38v11.82c0,1.86,1.18,3.52,2.95,4.14,2.24.78,4.82,1.43,7.66,1.92,3.78.65,7.58.99,11.29.99,9.57,0,17.13-2.23,22.46-6.63,5.4-4.46,8.14-10.5,8.14-17.95,0-4.67-1.22-8.93-3.64-12.67-2.41-3.73-6.79-7.09-12.99-9.97l-2.71-1.19c-4.14-1.89-6.9-3.29-8.2-4.15-1.48-.97-1.48-1.84-1.48-2.12,0-2.16,2.76-3.26,8.21-3.26,3.68,0,7.42.45,11.12,1.35.34.08.69.12,1.04.12,2.41,0,4.36-1.96,4.36-4.37v-10.84c0-1.98-1.34-3.72-3.25-4.23-1.82-.48-3.7-.88-5.6-1.18-2.74-.44-6.23-.66-10.36-.66-5.65,0-10.78.92-15.25,2.73-4.54,1.84-8.14,4.55-10.7,8.05-2.59,3.54-3.9,7.78-3.9,12.62,0,5.14,1.49,9.6,4.41,13.25,2.87,3.58,7.63,6.92,14.16,9.92,4.49,2.11,7.57,3.73,9.16,4.84,1.3.91,1.93,1.87,1.93,2.95,0,2.31-2.76,3.48-8.21,3.48"/>
          <path class="cls-4" d="M168.21,182.21c-.45,0-.89.07-1.32.2-1.27.4-2.52.75-3.7,1.02-2.33.55-5.01.83-7.99.83-5.8,0-10.4-1.63-13.69-4.85-3.28-3.21-4.94-7.7-4.94-13.35,0-5.99,1.73-10.7,5.15-13.98,3.43-3.3,8.4-4.97,14.77-4.97,3.67,0,7.17.43,10.4,1.28.37.1.74.14,1.11.14,2.4,0,4.36-1.96,4.36-4.37v-10.94c0-1.91-1.2-3.57-2.99-4.15-4.56-1.47-9.79-2.21-15.57-2.21-8.47,0-15.91,1.6-22.12,4.76-6.25,3.18-11.13,7.8-14.49,13.72-3.35,5.9-5.05,12.9-5.05,20.83s1.7,14.46,5.06,20.24c3.36,5.81,8.09,10.34,14.04,13.49,5.92,3.13,12.79,4.71,20.42,4.71,7.03,0,13.17-1.05,18.24-3.11,1.63-.66,2.68-2.25,2.68-4.03v-10.89c0-2.41-1.96-4.37-4.37-4.37"/>
          <path class="cls-4" d="M217.06,183.62h-14.91c-1.03,0-1.86-.84-1.86-1.86v-49.44c0-2.41-1.96-4.37-4.37-4.37h-14.51c-2.41,0-4.37,1.96-4.37,4.37v66.86c0,2.41,1.96,4.37,4.37,4.37h35.65c2.41,0,4.37-1.96,4.37-4.37v-11.18c0-2.41-1.96-4.37-4.37-4.37"/>
          <path class="cls-4" d="M285.3,127.94h-14.73c-2.41,0-4.37,1.96-4.37,4.37v36.44c0,4.98-.81,8.91-2.41,11.68-1.49,2.58-4.02,3.84-7.73,3.84s-6.42-1.25-8.02-3.82c-1.69-2.72-2.55-6.73-2.55-11.91v-36.22c0-2.41-1.96-4.37-4.37-4.37h-14.51c-2.41,0-4.37,1.96-4.37,4.37v37.08c0,11.6,2.79,20.46,8.29,26.33,5.52,5.9,14.08,8.89,25.42,8.89,5.63,0,10.62-.75,14.82-2.23,4.26-1.5,7.83-3.8,10.61-6.82,5.5-5.98,8.28-14.93,8.28-26.59v-36.65c0-2.41-1.96-4.37-4.37-4.37"/>
          <path class="cls-4" d="M348.61,167.44c-1.54-1.58-3.2-2.88-4.93-3.87-.66-.37-.82-.98-.86-1.31-.08-.6.14-1.22.59-1.65.81-.78,1.57-1.67,2.26-2.65,1.97-2.78,2.97-6.17,2.97-10.08,0-6.56-2.36-11.6-7.02-14.99-4.54-3.3-11.09-4.97-19.49-4.97h-22.79c-2.41,0-4.37,1.96-4.37,4.37v66.86c0,2.41,1.96,4.37,4.37,4.37h24.83c9.07,0,16.26-2.08,21.37-6.19,5.2-4.17,7.83-9.82,7.83-16.78,0-5.47-1.6-9.89-4.76-13.13M324.27,154.79c-.87.95-2.24,1.42-4.18,1.42h-.22c-1.03,0-1.86-.84-1.86-1.86v-7.09c0-1.03.84-1.86,1.86-1.86h.32c1.82,0,3.15.44,4.06,1.35.91.91,1.35,2.17,1.35,3.84,0,1.84-.44,3.22-1.34,4.21M318.01,183.9v-9.14c0-1.03.84-1.86,1.86-1.86h2.47c2.39,0,4.18.54,5.33,1.6,1.14,1.05,1.69,2.58,1.69,4.67s-.57,3.7-1.73,4.86c-1.15,1.15-3.07,1.73-5.72,1.73h-2.04c-1.03,0-1.86-.84-1.86-1.86"/>
          <path class="cls-4" d="M78.25,185.61c-.29-1.78-.54-3.55-.49-5.28.08-3.35,2.06-5.96,1.71-9.46-.36-3.69-2.27-7.12-4.95-9.63-2.46-2.3-5.65-3.89-9.03-4.23-3.71-.37-5.99,1.72-9.37,2.17-6.55.87-14.24-2.79-19.47,2.81-4.49,4.8-3.5,13.02,2.2,18.35,3.09,2.88,7.07,4.34,10.23,7.27,3.44,3.2,5.46,7.38,8.8,10.51,5.7,5.33,13.97,5.76,18.46.96,3.69-3.95,2.69-8.71,1.92-13.46"/>
          <path class="cls-4" d="M95.77,190.52c-4.52,3.98-11.35,3.08-14.34-1.77-3-4.86-.75-11.35,4.83-13.62,4.54-1.85,14.65-4.51,17.37-.11,2.73,4.41-4.17,12.26-7.85,15.5"/>
          <path class="cls-4" d="M99.57,164.77c-2.92,4.27-9.86,10.15-15.16,4.95-5.2-5.11-2.99-13.87,1.1-18.35,3.27-3.58,13.91-12.12,18.06-8.19,4.07,3.85-.66,16.69-4,21.59"/>
          <path class="cls-4" d="M43.86,142c-3.66,4.78-2.3,11.53,2.73,14.19,5.05,2.67,11.38-.02,13.27-5.73,1.54-4.66,3.51-14.92-1.07-17.34-4.59-2.42-11.95,4.99-14.93,8.88"/>
          <path class="cls-4" d="M69.29,136.47c-4.07,3.2-9.46,10.53-3.91,15.46,5.45,4.84,14.04,2.05,18.23-2.34,3.35-3.5,11.15-14.69,6.95-18.58-4.11-3.8-16.61,1.79-21.27,5.45"/>
        </g>
        <g class="cls-6">
          <path class="cls-4" d="M146.35,30.17c0,6.28-5.04,11.38-11.25,11.38s-11.25-5.09-11.25-11.38,5.04-11.38,11.25-11.38,11.25,5.09,11.25,11.38"/>
          <path class="cls-4" d="M174.54,28.91c-1.23-.64-2.23-1.17-2.23-2.17,0-.71.6-1.14,1.6-1.14,1.19,0,2.25.39,3.07.88v-2.57c-.85-.37-2.02-.68-3.07-.68-2.97,0-4.3,1.79-4.3,3.72,0,2.27,1.51,3.36,3.18,4.25,1.64.88,2.27,1.26,2.27,2.21,0,.8-.69,1.26-1.84,1.26-1.6,0-2.74-.75-3.48-1.35v2.73c.69.49,2.18,1.08,3.46,1.08,2.88,0,4.7-1.52,4.7-3.97s-2.13-3.61-3.36-4.25"/>
          <path class="cls-4" d="M152.57,23.35h-3.56v13.65h2.66v-4.34h.54c3.33,0,5.39-1.79,5.39-4.67s-1.88-4.64-5.03-4.64M151.66,25.62h.78c1.56,0,2.57.91,2.57,2.32,0,1.53-.93,2.41-2.55,2.41h-.8v-4.73Z"/>
          <path class="cls-4" d="M166.07,29.65c.9-.64,1.34-1.56,1.34-2.81,0-2.15-1.57-3.49-4.09-3.49h-4.12v13.65h4.31c3.3,0,4.8-2.14,4.8-4.13,0-1.57-.85-2.79-2.24-3.22M163.13,25.65c1.04,0,1.71.65,1.71,1.67s-.73,1.69-1.85,1.69h-1.13v-3.36h1.27ZM161.86,34.72v-3.56h1.68c1.34,0,2.14.66,2.14,1.77,0,1.19-.8,1.79-2.39,1.79h-1.44Z"/>
          <path class="cls-3" d="M143.29,30.28l-1.25.26v2.33c0,.78-.64,1.41-1.46,1.41h-.64v2.71h-2.06v-2.71h.64c.83,0,1.46-.63,1.46-1.41v-2.33l1.25-.26c.27-.06.41-.36.29-.61l-3.28-6.33h2.06l3.28,6.33c.13.25-.01.55-.29.61"/>
          <path class="cls-3" d="M139.08,29.68l-3.28-6.33h-3.39c-3.08,0-5.7,2.55-5.63,5.67.05,2.32,1.54,4.07,3.6,4.72v3.26h5.06v-2.71h.64c.83,0,1.46-.63,1.46-1.41v-2.33l1.25-.26c.27-.06.41-.36.29-.61M134.82,29.32c-.71,0-1.29-.58-1.29-1.3s.58-1.3,1.29-1.3,1.29.58,1.29,1.3-.58,1.3-1.29,1.3"/>
          <polygon class="cls-4" points="49.18 30.94 44.54 23.34 42.37 23.34 42.37 37.03 44.63 37.03 44.63 27.73 48.79 34.38 49.41 34.38 53.52 27.79 53.52 37.03 55.81 37.03 55.81 23.34 53.81 23.34 49.18 30.94"/>
          <path class="cls-4" d="M65.59,27.28c-.75-.42-1.62-.63-2.57-.63s-1.86.21-2.62.62c-.76.41-1.37,1.03-1.81,1.83-.44.8-.66,1.75-.66,2.85s.22,2.04.65,2.83c.43.8,1.03,1.41,1.8,1.84.76.42,1.62.63,2.56.63s1.84-.22,2.61-.66c.77-.43,1.38-1.07,1.82-1.88.44-.81.66-1.78.66-2.89,0-1.03-.22-1.95-.65-2.73-.43-.78-1.03-1.39-1.79-1.81M62.97,35.22c-.76,0-1.39-.29-1.88-.87-.49-.58-.74-1.39-.74-2.42s.25-1.87.74-2.42c.49-.55,1.13-.83,1.9-.83s1.42.28,1.89.84c.47.56.71,1.35.71,2.35,0,1.07-.25,1.91-.74,2.48-.49.57-1.12.87-1.88.87"/>
          <path class="cls-4" d="M77.91,27.58c-.63-.62-1.49-.93-2.57-.93-.66,0-1.25.1-1.74.3-.48.2-.95.47-1.39.82l-.19-.91h-1.99v10.16h2.31v-7.22c.33-.32.68-.58,1.06-.79.38-.21.82-.32,1.32-.32.61,0,1.07.17,1.37.51.3.34.45.82.45,1.43v6.38h2.31v-6.83c0-1.12-.32-2.01-.95-2.62"/>
          <path class="cls-4" d="M84.1,23.99l-2.31.7v2.18h-1.45v1.83h1.45v5.48c0,.94.25,1.69.75,2.24.5.55,1.28.83,2.33.83.36,0,.71-.03,1.05-.08.34-.05.61-.12.81-.2h.01v-1.96h-.03c-.39.14-.81.21-1.24.21-.92,0-1.37-.48-1.37-1.46v-5.05h2.7v-1.83h-2.7v-2.88Z"/>
          <path class="cls-4" d="M92.22,26.65c-1.19,0-2.35.22-3.46.64h-.01v2.14l.03-.02c.49-.24,1.01-.43,1.55-.56.55-.13,1.08-.2,1.59-.2.86,0,1.44.2,1.73.58.29.39.43.94.43,1.64v.07c-.52-.12-1.09-.18-1.69-.18-1.31,0-2.39.26-3.23.79-.84.52-1.26,1.37-1.26,2.53,0,.97.3,1.74.89,2.3.59.56,1.39.85,2.39.85.64,0,1.23-.11,1.77-.33.52-.22.97-.48,1.32-.79l.27.91h1.85v-6.36c0-1.28-.35-2.29-1.05-2.98-.7-.69-1.75-1.04-3.12-1.04M94.08,32.61v1.84c-.76.54-1.54.81-2.34.81-.46,0-.81-.12-1.07-.36-.25-.24-.38-.53-.38-.89,0-.56.24-.96.71-1.18.48-.23,1.07-.34,1.75-.34.48,0,.93.04,1.33.12"/>
          <path class="cls-4" d="M106.87,27.58c-.63-.62-1.49-.93-2.57-.93-.66,0-1.25.1-1.74.3-.48.2-.95.47-1.39.82l-.19-.91h-1.99v10.16h2.31v-7.22c.33-.32.68-.58,1.06-.79.38-.21.82-.32,1.32-.32.61,0,1.07.17,1.37.51.3.34.45.82.45,1.43v6.38h2.31v-6.83c0-1.12-.32-2.01-.95-2.62"/>
          <path class="cls-4" d="M117.34,27.69c-.7-.69-1.75-1.04-3.12-1.04-1.19,0-2.35.22-3.46.64h-.01v2.14l.03-.02c.49-.24,1.01-.43,1.55-.56.55-.13,1.08-.2,1.59-.2.86,0,1.44.2,1.73.58.29.39.43.94.43,1.64v.07c-.52-.12-1.09-.18-1.69-.18-1.31,0-2.39.26-3.23.79-.84.52-1.26,1.37-1.26,2.53,0,.97.3,1.74.89,2.3.59.56,1.39.85,2.39.85.64,0,1.23-.11,1.77-.33.52-.22.97-.48,1.32-.79l.27.91h1.84v-6.36c0-1.28-.35-2.29-1.05-2.98M116.08,32.61v1.84c-.76.54-1.54.81-2.34.81-.46,0-.81-.12-1.07-.36-.25-.24-.38-.53-.38-.89,0-.56.24-.96.71-1.18.48-.23,1.07-.34,1.75-.34.48,0,.93.04,1.33.12"/>
        </g>
      </g>
    </g>
  </g>
</svg>