<?xml version="1.0" encoding="UTF-8"?>
<svg id="Layer_2" data-name="Layer 2" xmlns="http://www.w3.org/2000/svg" xmlns:xlink="http://www.w3.org/1999/xlink" viewBox="0 0 636.66 92.87">
  <defs>
    <style>
      .cls-1 {
        stroke: #f5b338;
        stroke-width: .7px;
      }

      .cls-1, .cls-2, .cls-3, .cls-4, .cls-5, .cls-6, .cls-7, .cls-8, .cls-9, .cls-10 {
        fill: none;
      }

      .cls-1, .cls-4, .cls-5, .cls-6, .cls-7, .cls-9, .cls-10 {
        stroke-linecap: round;
      }

      .cls-1, .cls-4, .cls-5, .cls-7, .cls-9 {
        stroke-linejoin: round;
      }

      .cls-11 {
        mask: url(#mask-15);
      }

      .cls-12 {
        mask: url(#mask-14);
      }

      .cls-13 {
        mask: url(#mask-13);
      }

      .cls-14 {
        mask: url(#mask-12);
      }

      .cls-15 {
        mask: url(#mask-11);
      }

      .cls-16 {
        mask: url(#mask-16);
      }

      .cls-17 {
        mask: url(#mask-10);
      }

      .cls-18 {
        clip-path: url(#clippath);
      }

      .cls-2, .cls-19, .cls-20, .cls-21, .cls-22, .cls-23, .cls-24, .cls-25, .cls-26, .cls-27, .cls-28, .cls-29, .cls-30, .cls-31, .cls-32, .cls-33 {
        stroke-width: 0px;
      }

      .cls-34 {
        mask: url(#mask);
      }

      .cls-3 {
        stroke: #6a1b9a;
        stroke-width: 6.46px;
      }

      .cls-3, .cls-6, .cls-8, .cls-10 {
        stroke-miterlimit: 10;
      }

      .cls-4 {
        stroke-width: .55px;
      }

      .cls-4, .cls-5, .cls-7, .cls-10 {
        stroke: #000;
      }

      .cls-35 {
        clip-path: url(#clippath-1);
      }

      .cls-36 {
        clip-path: url(#clippath-4);
      }

      .cls-37 {
        clip-path: url(#clippath-3);
      }

      .cls-38 {
        clip-path: url(#clippath-2);
      }

      .cls-39 {
        clip-path: url(#clippath-7);
      }

      .cls-40 {
        clip-path: url(#clippath-8);
      }

      .cls-41 {
        clip-path: url(#clippath-6);
      }

      .cls-42 {
        clip-path: url(#clippath-5);
      }

      .cls-43 {
        clip-path: url(#clippath-9);
      }

      .cls-5 {
        stroke-width: .52px;
      }

      .cls-44 {
        clip-path: url(#clippath-20);
      }

      .cls-45 {
        clip-path: url(#clippath-21);
      }

      .cls-46 {
        clip-path: url(#clippath-24);
      }

      .cls-47 {
        clip-path: url(#clippath-23);
      }

      .cls-48 {
        clip-path: url(#clippath-22);
      }

      .cls-49 {
        clip-path: url(#clippath-25);
      }

      .cls-50 {
        clip-path: url(#clippath-44);
      }

      .cls-51 {
        clip-path: url(#clippath-45);
      }

      .cls-52 {
        clip-path: url(#clippath-40);
      }

      .cls-53 {
        clip-path: url(#clippath-42);
      }

      .cls-54 {
        clip-path: url(#clippath-41);
      }

      .cls-55 {
        clip-path: url(#clippath-47);
      }

      .cls-56 {
        clip-path: url(#clippath-43);
      }

      .cls-57 {
        clip-path: url(#clippath-46);
      }

      .cls-58 {
        clip-path: url(#clippath-48);
      }

      .cls-59 {
        clip-path: url(#clippath-27);
      }

      .cls-60 {
        clip-path: url(#clippath-28);
      }

      .cls-61 {
        clip-path: url(#clippath-26);
      }

      .cls-62 {
        clip-path: url(#clippath-29);
      }

      .cls-63 {
        clip-path: url(#clippath-34);
      }

      .cls-64 {
        clip-path: url(#clippath-35);
      }

      .cls-65 {
        clip-path: url(#clippath-36);
      }

      .cls-66 {
        clip-path: url(#clippath-37);
      }

      .cls-67 {
        clip-path: url(#clippath-39);
      }

      .cls-68 {
        clip-path: url(#clippath-33);
      }

      .cls-69 {
        clip-path: url(#clippath-32);
      }

      .cls-70 {
        clip-path: url(#clippath-30);
      }

      .cls-71 {
        clip-path: url(#clippath-38);
      }

      .cls-72 {
        clip-path: url(#clippath-31);
      }

      .cls-73 {
        clip-path: url(#clippath-14);
      }

      .cls-74 {
        clip-path: url(#clippath-13);
      }

      .cls-75 {
        clip-path: url(#clippath-12);
      }

      .cls-76 {
        clip-path: url(#clippath-10);
      }

      .cls-77 {
        clip-path: url(#clippath-15);
      }

      .cls-78 {
        clip-path: url(#clippath-17);
      }

      .cls-79 {
        clip-path: url(#clippath-16);
      }

      .cls-80 {
        clip-path: url(#clippath-19);
      }

      .cls-81 {
        clip-path: url(#clippath-11);
      }

      .cls-82 {
        clip-path: url(#clippath-18);
      }

      .cls-6 {
        stroke: #ed712c;
        stroke-width: 8.3px;
      }

      .cls-7 {
        stroke-width: .5px;
      }

      .cls-8 {
        stroke-width: 1.16px;
      }

      .cls-8, .cls-9 {
        stroke: #fff;
      }

      .cls-9 {
        stroke-width: .65px;
      }

      .cls-10 {
        stroke-width: 10.43px;
      }

      .cls-83 {
        isolation: isolate;
      }

      .cls-84 {
        mask: url(#mask-3);
      }

      .cls-85 {
        mask: url(#mask-2);
      }

      .cls-86 {
        mask: url(#mask-5);
      }

      .cls-87 {
        mask: url(#mask-4);
      }

      .cls-88 {
        mask: url(#mask-1);
      }

      .cls-89 {
        mask: url(#mask-7);
      }

      .cls-90 {
        mask: url(#mask-6);
      }

      .cls-91 {
        mask: url(#mask-8);
      }

      .cls-92 {
        mask: url(#mask-9);
      }

      .cls-20 {
        fill: #f7e03b;
      }

      .cls-21 {
        fill: #595959;
      }

      .cls-22 {
        fill: #ce0201;
      }

      .cls-23 {
        fill: #999;
      }

      .cls-24 {
        fill: #9ee5db;
      }

      .cls-25 {
        fill: #fff;
      }

      .cls-26 {
        fill: #fffde9;
      }

      .cls-27 {
        fill: #fbb03b;
      }

      .cls-28 {
        fill: #fcee21;
      }

      .cls-29 {
        fill: #ed712c;
      }

      .cls-30 {
        fill: #e6e6e6;
      }

      .cls-31 {
        fill: #f5b338;
      }

      .cls-32 {
        fill: #00ab4e;
      }

      .cls-33 {
        fill: #0081c9;
      }
    </style>
    <clipPath id="clippath">
      <rect class="cls-2" y="1" width="124.56" height="86.01"/>
    </clipPath>
    <clipPath id="clippath-1">
      <rect class="cls-2" y="1" width="124.56" height="86.01"/>
    </clipPath>
    <clipPath id="clippath-2">
      <rect class="cls-2" y="1" width="124.56" height="86.01"/>
    </clipPath>
    <mask id="mask" x=".95" y="20.84" width="105.12" height="82.3" maskUnits="userSpaceOnUse">
      <g>
        <rect class="cls-19" x=".95" y="20.84" width="105.12" height="82.3"/>
        <g class="cls-83">
          <path class="cls-25" d="M71.39,23.75h-27.88c-9.57,0-17.33,7.76-17.33,17.33v27.06h79.89v-9.71c0-19.15-15.53-34.68-34.68-34.68"/>
        </g>
      </g>
    </mask>
    <clipPath id="clippath-3">
      <rect class="cls-2" x=".95" y="20.84" width="105.12" height="82.3"/>
    </clipPath>
    <clipPath id="clippath-4">
      <rect class="cls-2" x="1.22" y="3.83" width="75.19" height="59.8"/>
    </clipPath>
    <mask id="mask-1" x="1.22" y="2.67" width="75.19" height="60.96" maskUnits="userSpaceOnUse">
      <g class="cls-36">
        <rect class="cls-19" x="1.22" y="2.67" width="75.19" height="60.96"/>
        <g class="cls-83">
          <path class="cls-25" d="M64.62,20.69C52.14,2.67,25.5,2.67,13.02,20.69L1.39,37.51c9.05,10.52,22.47,17.18,37.43,17.18s28.38-6.66,37.43-17.18l-11.64-16.82Z"/>
        </g>
      </g>
    </mask>
    <clipPath id="clippath-5">
      <rect class="cls-2" x="1.22" y="3.83" width="75.19" height="59.8"/>
    </clipPath>
    <clipPath id="clippath-6">
      <rect class="cls-2" x="151" y="33" width="157.47" height="44.68"/>
    </clipPath>
    <clipPath id="clippath-7">
      <rect class="cls-2" x="151" y="33" width="157.47" height="44.68"/>
    </clipPath>
    <clipPath id="clippath-8">
      <rect class="cls-2" x="325.4" y="1" width="92.05" height="85.22"/>
    </clipPath>
    <clipPath id="clippath-9">
      <rect class="cls-2" x="325.4" y="1" width="92.05" height="85.22"/>
    </clipPath>
    <clipPath id="clippath-10">
      <rect class="cls-2" x="325.4" y="1" width="92.05" height="85.22"/>
    </clipPath>
    <clipPath id="clippath-11">
      <rect class="cls-2" x="339.05" y="48.78" width="29.27" height="41.17"/>
    </clipPath>
    <mask id="mask-2" x="339.05" y="48.61" width="29.27" height="41.34" maskUnits="userSpaceOnUse">
      <g class="cls-81">
        <rect class="cls-19" x="339.05" y="48.61" width="29.27" height="41.34"/>
        <g class="cls-83">
          <path class="cls-25" d="M368.32,49.33v34.97c0,.3-.25.55-.55.55h-18.29c-.32,0-.58-.28-.55-.6v-.41c-.45-14.1,6.58-27.39,18.5-34.94.36-.28.88-.02.88.44"/>
        </g>
      </g>
    </mask>
    <clipPath id="clippath-12">
      <rect class="cls-2" x="339.05" y="48.78" width="29.27" height="41.17"/>
    </clipPath>
    <clipPath id="clippath-13">
      <rect class="cls-2" x="339.05" y="72.6" width="21.08" height="17.35"/>
    </clipPath>
    <mask id="mask-3" x="339.05" y="72.6" width="25.37" height="17.64" maskUnits="userSpaceOnUse">
      <g>
        <rect class="cls-19" x="339.05" y="72.6" width="21.08" height="17.35"/>
        <g class="cls-83">
          <g class="cls-74">
            <rect class="cls-25" x="351.69" y="75.48" width="12.73" height="14.77"/>
          </g>
        </g>
      </g>
    </mask>
    <clipPath id="clippath-14">
      <rect class="cls-2" x="339.05" y="72.6" width="21.08" height="17.35"/>
    </clipPath>
    <clipPath id="clippath-15">
      <rect class="cls-2" x="360.76" y="64.37" width="6.56" height="20.98"/>
    </clipPath>
    <mask id="mask-4" x="360.76" y="64.37" width="14.58" height="21.77" maskUnits="userSpaceOnUse">
      <g>
        <rect class="cls-19" x="360.76" y="64.37" width="6.56" height="20.98"/>
        <g class="cls-83">
          <g class="cls-77">
            <rect class="cls-25" x="362.93" y="66.8" width="12.41" height="19.34"/>
          </g>
        </g>
      </g>
    </mask>
    <clipPath id="clippath-16">
      <rect class="cls-2" x="360.76" y="64.37" width="6.56" height="20.98"/>
    </clipPath>
    <clipPath id="clippath-17">
      <rect class="cls-2" x="360.27" y="47.82" width="12.13" height="8.86"/>
    </clipPath>
    <mask id="mask-5" x="348.9" y="47.82" width="23.49" height="37.02" maskUnits="userSpaceOnUse">
      <g>
        <rect class="cls-19" x="360.27" y="47.82" width="12.13" height="8.86"/>
        <g class="cls-83">
          <g class="cls-78">
            <path class="cls-25" d="M368.32,49.33v34.97c0,.3-.25.55-.55.55h-18.29c-.32,0-.58-.28-.55-.6v-.41c-.45-14.1,6.58-27.39,18.5-34.94.36-.28.88-.02.88.44"/>
          </g>
        </g>
      </g>
    </mask>
    <clipPath id="clippath-18">
      <rect class="cls-2" x="360.27" y="47.82" width="12.13" height="8.86"/>
    </clipPath>
    <clipPath id="clippath-19">
      <rect class="cls-2" x="380.33" y="2.41" width="35.97" height="36.62"/>
    </clipPath>
    <clipPath id="clippath-20">
      <rect class="cls-2" x="380.33" y="2.41" width="35.97" height="36.62"/>
    </clipPath>
    <mask id="mask-6" x="353.45" y="15.11" width="41.83" height="39.81" maskUnits="userSpaceOnUse">
      <g>
        <rect class="cls-19" x="353.45" y="15.11" width="41.83" height="39.81"/>
        <g class="cls-83">
          <path class="cls-25" d="M393.26,35.01c0,10.99-8.91,19.9-19.9,19.9s-19.9-8.91-19.9-19.9,8.91-19.9,19.9-19.9,19.9,8.91,19.9,19.9"/>
        </g>
      </g>
    </mask>
    <clipPath id="clippath-21">
      <rect class="cls-2" x="353.45" y="15.11" width="41.83" height="39.81"/>
    </clipPath>
    <clipPath id="clippath-22">
      <rect class="cls-2" x="326.46" y="7.84" width="37.77" height="32.16"/>
    </clipPath>
    <clipPath id="clippath-23">
      <rect class="cls-2" x="326.46" y="7.84" width="37.77" height="32.16"/>
    </clipPath>
    <clipPath id="clippath-24">
      <rect class="cls-2" x="450" y="3" width="72" height="89.87"/>
    </clipPath>
    <clipPath id="clippath-25">
      <rect class="cls-2" x="450" y="3" width="72" height="89.87"/>
    </clipPath>
    <clipPath id="clippath-26">
      <rect class="cls-2" x="450" y="3" width="72" height="89.87"/>
    </clipPath>
    <clipPath id="clippath-27">
      <rect class="cls-2" x="447.89" y="4.69" width="67.73" height="44.27"/>
    </clipPath>
    <clipPath id="clippath-28">
      <rect class="cls-2" x="442.46" y="-32.86" width="78.59" height="81.81"/>
    </clipPath>
    <mask id="mask-7" x="442.46" y="-32.86" width="78.59" height="117.85" maskUnits="userSpaceOnUse">
      <g class="cls-59">
        <rect class="cls-19" x="442.46" y="-32.86" width="78.59" height="81.81"/>
        <g class="cls-83">
          <g class="cls-60">
            <path class="cls-25" d="M498.77,60.27c0,13.66-7.62,24.73-17.01,24.73s-17.01-11.07-17.01-24.73,7.62-24.73,17.01-24.73,17.01,11.07,17.01,24.73"/>
          </g>
        </g>
      </g>
    </mask>
    <clipPath id="clippath-29">
      <rect class="cls-2" x="447.89" y="4.69" width="67.73" height="44.27"/>
    </clipPath>
    <clipPath id="clippath-30">
      <rect class="cls-2" x="464.19" y="62.88" width="35.13" height="29"/>
    </clipPath>
    <mask id="mask-8" x="455.35" y="35.54" width="52.82" height="56.33" maskUnits="userSpaceOnUse">
      <g>
        <rect class="cls-19" x="464.19" y="62.88" width="35.13" height="29"/>
        <g class="cls-83">
          <g class="cls-70">
            <path class="cls-25" d="M496.5,84.61h0c-2.75-.59-4.51-3.33-3.91-6.07l5.21-24.06c.59-2.75,3.33-4.51,6.07-3.91,2.75.59,4.51,3.33,3.91,6.08l-5.21,24.06c-.59,2.75-3.33,4.51-6.07,3.91"/>
            <path class="cls-25" d="M498.75,78.24h6.23c1.75,0,3.19,1.43,3.19,3.19s-1.43,3.19-3.19,3.19h-6.23c-1.75,0-3.19-1.43-3.19-3.19s1.43-3.19,3.19-3.19"/>
            <path class="cls-25" d="M467.01,84.61h0c2.75-.59,4.51-3.33,3.91-6.07l-5.21-24.06c-.59-2.75-3.33-4.51-6.07-3.91-2.75.59-4.51,3.33-3.91,6.08l5.21,24.06c.59,2.75,3.33,4.51,6.07,3.91"/>
            <path class="cls-25" d="M464.77,78.24h-6.23c-1.75,0-3.19,1.43-3.19,3.19s1.43,3.19,3.19,3.19h6.23c1.75,0,3.19-1.43,3.19-3.19s-1.43-3.19-3.19-3.19"/>
            <path class="cls-25" d="M498.77,60.27c0,13.66-7.62,24.73-17.01,24.73s-17.01-11.07-17.01-24.73,7.62-24.73,17.01-24.73,17.01,11.07,17.01,24.73"/>
          </g>
        </g>
      </g>
    </mask>
    <clipPath id="clippath-31">
      <rect class="cls-2" x="464.19" y="62.88" width="35.13" height="29"/>
    </clipPath>
    <clipPath id="clippath-32">
      <rect class="cls-2" x="464.19" y="62.88" width="9.25" height="29"/>
    </clipPath>
    <mask id="mask-9" x="461.44" y="62.88" width="28.61" height="37.03" maskUnits="userSpaceOnUse">
      <g>
        <rect class="cls-19" x="464.19" y="62.88" width="9.25" height="29"/>
        <g class="cls-83">
          <g class="cls-69">
            <rect class="cls-25" x="461.44" y="69.15" width="28.61" height="30.76"/>
          </g>
        </g>
      </g>
    </mask>
    <clipPath id="clippath-33">
      <rect class="cls-2" x="464.19" y="62.88" width="9.25" height="29"/>
    </clipPath>
    <clipPath id="clippath-34">
      <rect class="cls-2" x="490.21" y="62.88" width="9.11" height="29"/>
    </clipPath>
    <mask id="mask-10" x="473.89" y="62.88" width="27.56" height="37.03" maskUnits="userSpaceOnUse">
      <g>
        <rect class="cls-19" x="490.21" y="62.88" width="9.11" height="29"/>
        <g class="cls-83">
          <g class="cls-63">
            <rect class="cls-25" x="473.89" y="69.15" width="27.56" height="30.76"/>
          </g>
        </g>
      </g>
    </mask>
    <clipPath id="clippath-35">
      <rect class="cls-2" x="490.21" y="62.88" width="9.12" height="29"/>
    </clipPath>
    <mask id="mask-11" x="446.57" y="-1.72" width="71.94" height="47.45" maskUnits="userSpaceOnUse">
      <g>
        <rect class="cls-19" x="446.57" y="-1.72" width="71.94" height="47.45"/>
        <g class="cls-83">
          <path class="cls-25" d="M502.29,18.67c-9.93-14.34-31.13-14.34-41.06,0l-9.26,13.38c7.21,8.37,17.88,13.67,29.79,13.67s22.58-5.3,29.79-13.67l-9.26-13.38Z"/>
        </g>
      </g>
    </mask>
    <clipPath id="clippath-36">
      <rect class="cls-2" x="446.57" y="-1.72" width="71.94" height="47.45"/>
    </clipPath>
    <clipPath id="clippath-37">
      <rect class="cls-2" x="541" width="95.66" height="87.57"/>
    </clipPath>
    <clipPath id="clippath-38">
      <rect class="cls-2" x="541" width="95.66" height="87.57"/>
    </clipPath>
    <clipPath id="clippath-39">
      <rect class="cls-2" x="541" width="95.66" height="87.57"/>
    </clipPath>
    <clipPath id="clippath-40">
      <rect class="cls-2" x="577.77" y="53.32" width="39.18" height="33.78"/>
    </clipPath>
    <mask id="mask-12" x="561.64" y="21.44" width="59.61" height="65.67" maskUnits="userSpaceOnUse">
      <g>
        <rect class="cls-19" x="577.77" y="53.32" width="39.18" height="33.78"/>
        <g class="cls-83">
          <g class="cls-52">
            <path class="cls-25" d="M614.48,62.13l-19.69,21.27-32.54-31.28c-.46-.45-.69-1.09-.59-1.73l2.89-23.67,7.88-5.28c2.49,1.2,4.92,2.51,7.29,3.92,14.68,8.76,26.74,21.46,34.7,36.65.02.04.04.08.07.13"/>
            <rect class="cls-19" x="594.54" y="45.65" width="26.71" height="36.15"/>
          </g>
        </g>
      </g>
    </mask>
    <clipPath id="clippath-41">
      <rect class="cls-2" x="577.77" y="53.32" width="39.18" height="33.78"/>
    </clipPath>
    <clipPath id="clippath-42">
      <rect class="cls-2" x="563.07" y="41.7" width="18.03" height="45.4"/>
    </clipPath>
    <clipPath id="clippath-43">
      <rect class="cls-2" x="563.07" y="41.7" width="18.08" height="45.4"/>
    </clipPath>
    <mask id="mask-13" x="561.64" y="21.44" width="52.84" height="65.67" maskUnits="userSpaceOnUse">
      <g class="cls-53">
        <rect class="cls-19" x="563.07" y="41.7" width="18.08" height="45.4"/>
        <g class="cls-83">
          <g class="cls-56">
            <path class="cls-25" d="M614.48,62.13l-19.69,21.27-32.54-31.28c-.46-.45-.69-1.09-.59-1.73l2.89-23.67,7.88-5.28c2.49,1.2,4.92,2.51,7.29,3.92,14.68,8.76,26.74,21.46,34.7,36.65.02.04.04.08.07.13"/>
            <polygon class="cls-19" points="566.5 48.82 582.63 54.5 585.47 36.69 567.66 38.88 566.5 48.82"/>
          </g>
        </g>
      </g>
    </mask>
    <clipPath id="clippath-44">
      <rect class="cls-2" x="563.07" y="41.7" width="18.03" height="45.4"/>
    </clipPath>
    <mask id="mask-14" x="542.06" y=".86" width="42.44" height="30.72" maskUnits="userSpaceOnUse">
      <g>
        <rect class="cls-19" x="542.06" y=".86" width="42.44" height="30.72"/>
        <g class="cls-83">
          <path class="cls-25" d="M582.94,13.31c0,2.44-.37,4.77-1.03,6.9-2.09,6.67-7.12,11.37-13,11.37-1.69,0-3.31-.39-4.81-1.1h0c-1.96.71-4.14,1.1-6.43,1.1-8.62,0-15.61-5.58-15.61-12.45,0-.64.06-1.28.18-1.9.05-.27.25-.49.51-.58l10.55-3.56,1.59-.54c.06-2.03.38-3.98.92-5.79,0,0,0,0,0,0,.07-.24.19-.45.35-.63,1.67-1.88,3.98-3.38,6.68-4.29,1.87-.63,3.92-.98,6.07-.98,5.42,0,10.2,2.21,13,5.56.67,2.13,1.03,4.46,1.03,6.9"/>
        </g>
      </g>
    </mask>
    <clipPath id="clippath-45">
      <rect class="cls-2" x="542.06" y=".86" width="42.44" height="30.72"/>
    </clipPath>
    <mask id="mask-15" x="559.54" y="9" width="8.37" height="8.1" maskUnits="userSpaceOnUse">
      <g>
        <rect class="cls-19" x="559.54" y="9" width="8.37" height="8.1"/>
        <g class="cls-83">
          <path class="cls-25" d="M567.91,13.05c0,2.24-1.81,4.05-4.05,4.05s-4.05-1.81-4.05-4.05,1.81-4.05,4.05-4.05,4.05,1.81,4.05,4.05"/>
        </g>
      </g>
    </mask>
    <clipPath id="clippath-46">
      <rect class="cls-2" x="559.54" y="9" width="8.37" height="8.1"/>
    </clipPath>
    <clipPath id="clippath-47">
      <rect class="cls-2" x="560.22" y="23.75" width="23.57" height="10.87"/>
    </clipPath>
    <mask id="mask-16" x="560.22" y="21.44" width="54.26" height="61.96" maskUnits="userSpaceOnUse">
      <g>
        <rect class="cls-19" x="560.22" y="23.75" width="23.57" height="10.87"/>
        <g class="cls-83">
          <g class="cls-55">
            <path class="cls-25" d="M614.48,62.13l-19.69,21.27-32.54-31.28c-.46-.45-.69-1.09-.59-1.73l2.89-23.67,7.88-5.28c2.49,1.2,4.92,2.51,7.29,3.92,14.68,8.76,26.74,21.46,34.7,36.65.02.04.04.08.07.13"/>
          </g>
        </g>
      </g>
    </mask>
    <clipPath id="clippath-48">
      <rect class="cls-2" x="560.22" y="23.75" width="23.57" height="10.87"/>
    </clipPath>
  </defs>
  <g id="Layer_1-2" data-name="Layer 1">
    <g id="Black_Cat_2" data-name="Black Cat 2">
      <g class="cls-18">
        <g class="cls-35">
          <g class="cls-38">
            <path class="cls-10" d="M114.59,13.06c1.68,3.14,2.63,6.72,2.63,10.53,0,12.32-9.99,22.31-22.31,22.31"/>
            <path class="cls-19" d="M31.21,85.66h0c-2.77,0-5.03-2.26-5.03-5.03v-22.38h10.06v22.38c0,2.77-2.26,5.03-5.03,5.03"/>
            <path class="cls-19" d="M80.17,85.66h0c-2.77,0-5.03-2.26-5.03-5.03v-22.38h10.06v22.38c0,2.77-2.26,5.03-5.03,5.03"/>
            <g class="cls-34">
              <g class="cls-37">
                <path class="cls-19" d="M71.39,23.75h-27.88c-9.57,0-17.33,7.76-17.33,17.33v27.06h79.89v-9.71c0-19.15-15.53-34.68-34.68-34.68"/>
                <path class="cls-25" d="M102.07,80.89c0-12.29-16.1-22.26-35.95-22.26s-35.95,9.96-35.95,22.26,16.1,22.26,35.95,22.26,35.95-9.96,35.95-22.26"/>
                <path class="cls-8" d="M1.39,37.51c9.05,10.52,22.47,17.18,37.43,17.18s28.38-6.66,37.43-17.18"/>
              </g>
            </g>
            <path class="cls-19" d="M101.03,85.66h0c-2.77,0-5.03-2.26-5.03-5.03v-22.38h10.06v22.38c0,2.77-2.26,5.03-5.03,5.03"/>
            <path class="cls-19" d="M52.07,85.66h0c-2.77,0-5.03-2.26-5.03-5.03v-22.38h10.06v22.38c0,2.77-2.26,5.03-5.03,5.03"/>
            <path class="cls-19" d="M60.09,30.94c3.88-5.64,6.16-12.48,6.16-19.85,0-2.84-.34-5.61-.98-8.25-8.46,1.4-15.89,5.82-21.16,12.12l15.98,15.98Z"/>
            <path class="cls-31" d="M58.54,29.38c3.51-5.23,5.56-11.52,5.56-18.29,0-1.79-.15-3.55-.42-5.27-5.71,3.87-10.22,9.38-12.85,15.85l7.71,7.71Z"/>
            <path class="cls-19" d="M33.53,14.96c-5.26-6.3-12.7-10.73-21.16-12.12-.64,2.65-.98,5.41-.98,8.25,0,7.37,2.27,14.2,6.16,19.85l15.98-15.98Z"/>
            <path class="cls-31" d="M26.81,21.67c-2.63-6.47-7.14-11.98-12.85-15.85-.28,1.72-.42,3.47-.42,5.27,0,6.77,2.05,13.06,5.56,18.29l7.71-7.71Z"/>
            <g class="cls-88">
              <g class="cls-42">
                <path class="cls-19" d="M64.62,20.69C52.14,2.67,25.5,2.67,13.02,20.69L1.39,37.51c9.05,10.52,22.47,17.18,37.43,17.18s28.38-6.66,37.43-17.18l-11.64-16.82Z"/>
              </g>
            </g>
            <path class="cls-1" d="M42.16,49.42c-.94.67-2.09,1.07-3.34,1.07s-2.4-.4-3.34-1.07"/>
            <path class="cls-31" d="M39.53,46.75l1.37-1.61c.52-.61.08-1.54-.71-1.54h-2.73c-.8,0-1.23.93-.71,1.54l1.37,1.61c.37.44,1.05.44,1.43,0"/>
            <path class="cls-20" d="M35.58,32.12c0,5.7-4.62,10.32-10.32,10.32s-10.32-4.62-10.32-10.32,4.62-10.32,10.32-10.32,10.32,4.62,10.32,10.32"/>
            <path class="cls-20" d="M62.69,31.57c0,5.7-4.62,10.32-10.32,10.32s-10.32-4.62-10.32-10.32,4.62-10.32,10.32-10.32,10.32,4.62,10.32,10.32"/>
            <path class="cls-19" d="M33.09,32.12c0,4.32-3.5,7.82-7.82,7.82s-7.82-3.5-7.82-7.82,3.5-7.82,7.82-7.82,7.82,3.5,7.82,7.82"/>
            <path class="cls-25" d="M30.4,29.48c0,1.88-1.53,3.41-3.41,3.41s-3.41-1.53-3.41-3.41,1.53-3.41,3.41-3.41,3.41,1.53,3.41,3.41"/>
            <path class="cls-19" d="M60.2,31.57c0,4.32-3.5,7.82-7.82,7.82s-7.82-3.5-7.82-7.82,3.5-7.82,7.82-7.82,7.82,3.5,7.82,7.82"/>
            <path class="cls-25" d="M58.58,29.48c0,1.88-1.53,3.41-3.41,3.41s-3.41-1.53-3.41-3.41,1.53-3.41,3.41-3.41,3.41,1.53,3.41,3.41"/>
          </g>
        </g>
      </g>
    </g>
    <g id="Green_Snake" data-name="Green Snake">
      <g class="cls-41">
        <g class="cls-39">
          <path class="cls-32" d="M303.95,72.86c-5.56.42-11.11.72-16.67.99-1.25.07-2.51,0-3.75-.21-6.3-1.1-9.85-6.05-12.2-11.53-.88-2.01-1.66-4.03-2.52-5.94-1.25-2.58-2.37-4.95-4.95-5.23-2.59-.22-3.98.39-5.26,2.69-1.88,3.38-2.76,7.61-4.69,11.59-.88,1.87-2.15,3.99-3.71,5.61-3,3.26-7.4,4.92-11.71,4.88-5.41.07-10.23-2.32-13.42-6.76-1.6-2.16-2.79-4.76-3.76-7.15-.81-1.97-1.51-3.95-2.35-5.75-.47-1-.98-1.98-1.65-2.8-.71-.89-1.54-1.21-2.72-1.19-.67,0-1.4.07-1.97.43-.49.33-.83.78-1.18,1.31-.61.98-1.04,1.92-1.53,3.14-1.09,2.76-2.33,6.71-3.92,9.67-3.16,6.21-8.71,10.05-15.88,9.99-6.28.04-11.47-2.99-14.75-8.19-1.45-2.21-2.53-4.81-3.45-7.17-.9-2.27-1.62-4.49-2.75-6.5-.44-.74-.91-1.54-1.68-1.9-.37-.14-.83-.21-1.25-.21,0,0-6.34,0-6.35,0-9.61-.38-9.68-14.14,0-14.54h3.25c1.3,0,2.77-.02,4.04.03,6.51.32,11.53,3.9,14.6,9.54,2.09,3.72,3.11,7.6,4.63,11.08.51,1.14,1.22,2.62,2.15,3.29.4.28.96.37,1.46.4.67.03,1.37.01,1.95-.29.99-.58,1.7-2,2.27-3.17,1.51-3.28,2.76-7.44,4.71-10.89,2.33-4.26,6.04-7.72,10.89-8.88,4.7-1.12,9.87-.52,13.98,2.26,4.36,2.92,6.68,7.95,8.34,12.67.97,2.48,2.34,7.47,4.48,8.78.84.51,2.48.53,3.41.32,1.59-.39,2.36-1.82,3.16-3.27,1.25-2.41,2.41-5.91,3.7-8.73,2.24-5.08,5.84-9.57,11.57-10.92,4-.92,8.25-.54,11.9,1.49,9.36,5.29,8.6,18.38,13.5,22.39.89.69,2.05.95,3.18,1.01,5.63.28,11.25.58,16.87,1,4.04.41,4.12,6.19,0,6.64"/>
          <path class="cls-5" d="M165.93,47.28c-.71.51-1.58.8-2.52.8s-1.81-.3-2.52-.8"/>
          <path class="cls-25" d="M163.15,38.42c0,2.16-1.75,3.92-3.92,3.92s-3.92-1.75-3.92-3.92,1.75-3.92,3.92-3.92,3.92,1.75,3.92,3.92"/>
          <path class="cls-25" d="M171.51,38.22c0,2.16-1.75,3.92-3.92,3.92s-3.92-1.75-3.92-3.92,1.75-3.92,3.92-3.92,3.92,1.75,3.92,3.92"/>
          <path class="cls-19" d="M162.2,38.42c0,1.64-1.33,2.97-2.97,2.97s-2.97-1.33-2.97-2.97,1.33-2.97,2.97-2.97,2.97,1.33,2.97,2.97"/>
          <path class="cls-25" d="M161.18,37.42c0,.71-.58,1.29-1.29,1.29s-1.29-.58-1.29-1.29.58-1.29,1.29-1.29,1.29.58,1.29,1.29"/>
          <path class="cls-19" d="M170.57,38.22c0,1.64-1.33,2.97-2.97,2.97s-2.97-1.33-2.97-2.97,1.33-2.97,2.97-2.97,2.97,1.33,2.97,2.97"/>
          <path class="cls-25" d="M169.95,37.42c0,.71-.58,1.29-1.29,1.29s-1.29-.58-1.29-1.29.58-1.29,1.29-1.29,1.29.58,1.29,1.29"/>
        </g>
      </g>
    </g>
    <g id="Chihuahua">
      <g class="cls-40">
        <g class="cls-43">
          <g class="cls-76">
            <path class="cls-29" d="M352.87,78.84l-1.03,3.38c-3.98-1.45-7.54-3.77-10.46-6.72,3.46,1.87,7.35,3.05,11.49,3.34"/>
            <path class="cls-29" d="M367.29,84.84h3.21c.64,0,1.17-.53,1.17-1.17v-.28c0-.64-.53-1.17-1.17-1.17h-3.21c-.64,0-1.17.53-1.17,1.17v.28c0,.64.53,1.17,1.17,1.17"/>
            <g class="cls-85">
              <g class="cls-75">
                <path class="cls-29" d="M368.32,49.33v34.97c0,.3-.25.55-.55.55h-18.29c-.32,0-.58-.28-.55-.6v-.41c-.45-14.1,6.58-27.39,18.5-34.94.36-.28.88-.02.88.43"/>
                <path class="cls-29" d="M358.46,82.22h-2.62c.04-.31.06-.62.06-.94,0-4.51-3.66-8.17-8.17-8.17s-8.17,3.66-8.17,8.17,3.66,8.17,8.17,8.17c3.24,0,6.04-1.88,7.36-4.62.05,0,.1.01.16.01h3.21c.64,0,1.17-.53,1.17-1.17v-.28c0-.64-.53-1.17-1.17-1.17"/>
                <g class="cls-84">
                  <g class="cls-73">
                    <path class="cls-19" d="M347.72,73.1c4.51,0,8.17,3.66,8.17,8.17,0,.32-.02.63-.06.94h2.62c.64,0,1.17.53,1.17,1.17v.28c0,.64-.53,1.17-1.17,1.17h-3.21c-.05,0-.11,0-.16-.01-1.32,2.73-4.12,4.62-7.36,4.62-4.51,0-8.17-3.66-8.17-8.17s3.66-8.17,8.17-8.17M347.72,72.6c-4.78,0-8.67,3.89-8.67,8.67s3.89,8.67,8.67,8.67c1.66,0,3.28-.47,4.67-1.36,1.26-.81,2.29-1.92,2.99-3.24h3.07c.92,0,1.67-.75,1.67-1.67v-.28c0-.92-.75-1.67-1.67-1.67h-2.07c0-.15.01-.3.01-.44,0-4.78-3.89-8.67-8.67-8.67"/>
                  </g>
                </g>
                <path class="cls-29" d="M362.44,84.84h3.21c.64,0,1.17-.53,1.17-1.17v-.28c0-.64-.53-1.17-1.17-1.17h-3.21c-.64,0-1.17.53-1.17,1.17v.28c0,.64.53,1.17,1.17,1.17"/>
                <path class="cls-29" d="M362.65,64.87h0c.77,0,1.39.62,1.39,1.39v17.27h-2.78v-17.27c0-.77.62-1.39,1.39-1.39"/>
                <g class="cls-87">
                  <g class="cls-79">
                    <path class="cls-19" d="M362.65,64.87c.77,0,1.39.62,1.39,1.39v15.96h1.61c.64,0,1.17.53,1.17,1.17v.28c0,.64-.53,1.17-1.17,1.17h-3.21c-.64,0-1.17-.53-1.17-1.17v-17.41c0-.77.62-1.39,1.39-1.39M362.65,64.37c-1.04,0-1.89.85-1.89,1.89v17.41c0,.92.75,1.67,1.67,1.67h3.21c.92,0,1.67-.75,1.67-1.67v-.28c0-.92-.75-1.67-1.67-1.67h-1.11v-15.46c0-1.04-.85-1.89-1.89-1.89"/>
                  </g>
                </g>
              </g>
            </g>
            <g class="cls-86">
              <g class="cls-82">
                <rect class="cls-22" x="363.8" y="46.74" width="5.07" height="11.03" transform="translate(179.7 371.78) rotate(-67.83)"/>
              </g>
            </g>
            <path class="cls-23" d="M369.73,56.52c0,.94-.68,1.71-1.52,1.71s-1.52-.76-1.52-1.71.68-1.71,1.52-1.71,1.52.76,1.52,1.71"/>
            <rect class="cls-23" x="368.21" y="54.81" width=".27" height="3.41"/>
            <path class="cls-30" d="M370,56.52c0,.94-.68,1.71-1.52,1.71s-1.52-.76-1.52-1.71.68-1.71,1.52-1.71,1.52.76,1.52,1.71"/>
            <g class="cls-80">
              <g class="cls-44">
                <path class="cls-29" d="M414.82,2.47c.91-.32,1.76.59,1.39,1.47l-1.3,3.04-26.34,9.32c-1.92.68-3.08,2.63-2.77,4.64.71,4.57,2.18,8.98,4.36,13.06l1.66,3.11c-.97.67-1.97,1.31-2.98,1.92l-4.09-7.66c-2.18-4.07-3.65-8.49-4.36-13.05-.31-2.01.85-3.96,2.77-4.64l31.67-11.2Z"/>
                <path class="cls-31" d="M414.91,6.99l-1.7,4.01c-4.5,10.59-11.93,19.64-21.39,26.12l-1.66-3.11c-2.18-4.07-3.65-8.49-4.36-13.06-.31-2.01.85-3.96,2.77-4.64l26.34-9.32Z"/>
              </g>
            </g>
            <g class="cls-90">
              <g class="cls-45">
                <path class="cls-29" d="M393.26,35.01c0,10.99-8.91,19.9-19.9,19.9s-19.9-8.91-19.9-19.9,8.91-19.9,19.9-19.9,19.9,8.91,19.9,19.9"/>
                <path class="cls-25" d="M375.71,37.6c0,4.11-3.33,7.45-7.45,7.45s-7.45-3.33-7.45-7.45,3.33-7.45,7.45-7.45,7.45,3.33,7.45,7.45"/>
                <path class="cls-25" d="M395.28,37.21c0,4.11-3.33,7.45-7.45,7.45s-7.45-3.33-7.45-7.45,3.33-7.45,7.45-7.45,7.45,3.33,7.45,7.45"/>
                <path class="cls-19" d="M374.41,39.11c0,3.12-2.53,5.65-5.65,5.65s-5.65-2.53-5.65-5.65,2.53-5.65,5.65-5.65,5.65,2.53,5.65,5.65"/>
                <path class="cls-25" d="M372.46,37.2c0,1.36-1.1,2.46-2.46,2.46s-2.46-1.1-2.46-2.46,1.1-2.46,2.46-2.46,2.46,1.1,2.46,2.46"/>
                <path class="cls-19" d="M393.98,38.71c0,3.12-2.53,5.65-5.65,5.65s-5.65-2.53-5.65-5.65,2.53-5.65,5.65-5.65,5.65,2.53,5.65,5.65"/>
                <path class="cls-25" d="M392.81,37.2c0,1.36-1.1,2.46-2.46,2.46s-2.46-1.1-2.46-2.46,1.1-2.46,2.46-2.46,2.46,1.1,2.46,2.46"/>
                <path class="cls-31" d="M374.9,44.52l-2.76,2.19c-1.36,1.08-1.07,3.31.52,3.97,3.49,1.43,7.36,1.43,10.85,0,1.59-.65,1.88-2.89.52-3.97l-2.76-2.19c-1.88-1.49-4.48-1.49-6.36,0"/>
                <path class="cls-19" d="M380.18,45.79c0,.89-.72,1.61-1.61,1.61s-1.61-.72-1.61-1.61.72-1.61,1.61-1.61,1.61.72,1.61,1.61"/>
                <path class="cls-7" d="M380.18,49.62c-.46.32-1.01.52-1.61.52s-1.16-.19-1.61-.52"/>
              </g>
            </g>
            <g class="cls-48">
              <g class="cls-47">
                <path class="cls-29" d="M364.24,18.23c0,4.62-.78,9.21-2.31,13.57l-2.87,8.2c-.88-.36-1.75-.74-2.61-1.14l.34-.98c1.53-4.36,2.31-8.95,2.31-13.57,0-2.03-1.45-3.78-3.45-4.16l-25.38-4.78-3.63-5.85c-.51-.82.2-1.85,1.14-1.67l33.01,6.22c2,.38,3.45,2.12,3.45,4.16"/>
                <path class="cls-31" d="M359.09,24.32c0,4.62-.78,9.21-2.31,13.57l-.34.98c-10.61-4.93-19.57-12.86-25.77-22.83l-.41-.66,25.38,4.78c2,.38,3.45,2.12,3.45,4.16"/>
              </g>
            </g>
          </g>
        </g>
      </g>
    </g>
    <g id="Calico_Cat_1" data-name="Calico Cat 1">
      <g class="cls-46">
        <g class="cls-49">
          <g class="cls-61">
            <path class="cls-6" d="M514.43,46.46c1.34,2.5,2.1,5.35,2.1,8.38,0,9.81-7.95,17.76-17.76,17.76"/>
            <path class="cls-26" d="M496.5,84.61h0c-2.75-.59-4.51-3.33-3.91-6.07l5.21-24.06c.59-2.75,3.33-4.51,6.07-3.91s4.51,3.33,3.91,6.07l-5.21,24.06c-.59,2.75-3.33,4.51-6.07,3.91"/>
            <path class="cls-26" d="M498.75,78.24h6.23c1.75,0,3.19,1.43,3.19,3.19s-1.43,3.19-3.19,3.19h-6.23c-1.75,0-3.19-1.43-3.19-3.19s1.43-3.19,3.19-3.19"/>
            <path class="cls-26" d="M467.01,84.61h0c2.75-.59,4.51-3.33,3.91-6.07l-5.21-24.06c-.59-2.75-3.33-4.51-6.07-3.91-2.75.59-4.51,3.33-3.91,6.07l5.21,24.06c.59,2.75,3.33,4.51,6.07,3.91"/>
            <path class="cls-26" d="M464.77,78.24h-6.23c-1.75,0-3.19,1.43-3.19,3.19s1.43,3.19,3.19,3.19h6.23c1.75,0,3.19-1.43,3.19-3.19s-1.43-3.19-3.19-3.19"/>
            <path class="cls-26" d="M498.77,60.27c0,13.66-7.62,24.73-17.01,24.73s-17.01-11.07-17.01-24.73,7.62-24.73,17.01-24.73,17.01,11.07,17.01,24.73"/>
            <path class="cls-21" d="M491.17,52.76c0,9.35-4.22,16.93-9.42,16.93s-9.42-7.58-9.42-16.93,4.22-16.93,9.42-16.93,9.42,7.58,9.42,16.93"/>
            <g class="cls-89">
              <g class="cls-62">
                <path class="cls-3" d="M502.29,18.67c-9.93-14.34-31.13-14.34-41.06,0l-9.26,13.38c7.21,8.37,17.88,13.67,29.79,13.67s22.58-5.3,29.79-13.67l-9.26-13.38Z"/>
              </g>
            </g>
            <path class="cls-26" d="M468.82,91.32h0c-2.24,0-4.07-1.83-4.07-4.07v-27.38h8.15v27.38c0,2.24-1.83,4.07-4.07,4.07"/>
            <path class="cls-26" d="M494.77,91.32h0c-2.2,0-4-1.8-4-4v-27.45h8.01v27.45c0,2.2-1.8,4-4,4"/>
            <g class="cls-91">
              <g class="cls-72">
                <g class="cls-92">
                  <g class="cls-68">
                    <path class="cls-19" d="M472.89,63.43v23.82c0,2.24-1.83,4.07-4.07,4.07s-4.07-1.83-4.07-4.07v-23.82h8.15ZM473.45,62.88h-9.25v24.37c0,2.55,2.08,4.63,4.63,4.63s4.63-2.08,4.63-4.63v-24.37Z"/>
                  </g>
                </g>
                <g class="cls-17">
                  <g class="cls-64">
                    <path class="cls-19" d="M498.77,63.43v23.89c0,2.2-1.8,4-4,4s-4-1.8-4-4v-23.89h8.01ZM499.32,62.88h-9.12v24.44c0,2.51,2.04,4.56,4.56,4.56s4.56-2.04,4.56-4.56v-24.44Z"/>
                  </g>
                </g>
              </g>
            </g>
            <path class="cls-20" d="M484.14,50.26c0,1.67-1.07,3.03-2.39,3.03s-2.39-1.36-2.39-3.03,1.07-3.03,2.39-3.03,2.39,1.36,2.39,3.03"/>
            <path class="cls-29" d="M498.69,26.82c3.09-4.49,4.9-9.93,4.9-15.79,0-2.26-.27-4.46-.78-6.57-6.73,1.11-12.65,4.63-16.84,9.65l12.72,12.72Z"/>
            <path class="cls-20" d="M497.45,25.59c2.79-4.16,4.42-9.17,4.42-14.56,0-1.43-.12-2.83-.34-4.19-4.54,3.08-8.13,7.46-10.22,12.61l6.14,6.14Z"/>
            <path class="cls-19" d="M477.55,14.11c-4.19-5.01-10.11-8.54-16.84-9.65-.51,2.11-.78,4.31-.78,6.57,0,5.86,1.81,11.3,4.9,15.79l12.72-12.72Z"/>
            <path class="cls-20" d="M472.2,19.45c-2.09-5.15-5.68-9.54-10.22-12.61-.22,1.37-.34,2.76-.34,4.19,0,5.39,1.63,10.4,4.42,14.56l6.14-6.14Z"/>
            <g class="cls-15">
              <g class="cls-65">
                <path class="cls-26" d="M502.29,18.67c-9.93-14.34-31.13-14.34-41.06,0l-9.26,13.38c7.21,8.37,17.88,13.67,29.79,13.67s22.58-5.3,29.79-13.67l-9.26-13.38Z"/>
                <path class="cls-29" d="M518.51,23.18c0,10.49-8.51,19-19,19s-19-8.51-19-19,8.51-19,19-19,19,8.51,19,19"/>
                <path class="cls-19" d="M475.35,12.67c0,7.95-6.44,14.39-14.39,14.39s-14.39-6.44-14.39-14.39,6.44-14.39,14.39-14.39,14.39,6.44,14.39,14.39"/>
              </g>
            </g>
            <path class="cls-4" d="M484.41,41.54c-.75.53-1.67.85-2.66.85s-1.91-.31-2.66-.85"/>
            <path class="cls-19" d="M482.33,39.41l1.09-1.28c.41-.48.07-1.23-.57-1.23h-2.18c-.63,0-.98.74-.57,1.23l1.09,1.28c.3.35.84.35,1.13,0"/>
            <path class="cls-24" d="M479.18,27.77c0,4.54-3.68,8.21-8.21,8.21s-8.21-3.68-8.21-8.21,3.68-8.21,8.21-8.21,8.21,3.68,8.21,8.21"/>
            <path class="cls-24" d="M500.76,27.33c0,4.54-3.68,8.21-8.21,8.21s-8.21-3.68-8.21-8.21,3.68-8.21,8.21-8.21,8.21,3.68,8.21,8.21"/>
            <path class="cls-19" d="M477.2,27.77c0,3.44-2.79,6.23-6.23,6.23s-6.23-2.79-6.23-6.23,2.79-6.23,6.23-6.23,6.23,2.79,6.23,6.23"/>
            <path class="cls-25" d="M475.06,25.67c0,1.5-1.22,2.71-2.71,2.71s-2.71-1.22-2.71-2.71,1.22-2.71,2.71-2.71,2.71,1.22,2.71,2.71"/>
            <path class="cls-19" d="M498.77,27.33c0,3.44-2.79,6.23-6.23,6.23s-6.23-2.79-6.23-6.23,2.79-6.23,6.23-6.23,6.23,2.79,6.23,6.23"/>
            <path class="cls-25" d="M497.48,25.67c0,1.5-1.22,2.71-2.71,2.71s-2.71-1.22-2.71-2.71,1.22-2.71,2.71-2.71,2.71,1.22,2.71,2.71"/>
          </g>
        </g>
      </g>
    </g>
    <g id="Black_Lab" data-name="Black Lab">
      <g class="cls-66">
        <g class="cls-71">
          <g class="cls-67">
            <path class="cls-19" d="M635.26,57.17c-1.79,12.72-12.08,22.14-24.32,23.33-2.4.23-4.38-1.85-4.05-4.23.26-1.83,1.81-3.19,3.65-3.21,11.98-.12,22.4-8.98,24.12-21.21.21-1.46.28-2.91.23-4.33.68,3.09.83,6.34.37,9.66"/>
            <path class="cls-19" d="M614.48,62.13l-19.69,21.27-32.54-31.28c-.46-.45-.68-1.09-.59-1.73l2.89-23.67,7.88-5.28c2.49,1.2,4.92,2.51,7.29,3.92,14.68,8.76,26.74,21.46,34.7,36.65.02.04.04.08.07.13"/>
            <path class="cls-19" d="M600.06,53.71c-9.11,0-16.5,7.39-16.5,16.5,0,4.52,1.82,8.61,4.76,11.59h-7.7c-1.36,0-2.46,1.1-2.46,2.46s1.1,2.46,2.46,2.46h19.71c8.99-.14,16.24-7.48,16.24-16.5s-7.39-16.5-16.5-16.5"/>
            <g class="cls-14">
              <g class="cls-54">
                <path class="cls-25" d="M600.06,53.71c9.11,0,16.5,7.39,16.5,16.5s-7.25,16.36-16.24,16.5h0s-22.16,0-22.16,0v-1.2c0-2.04,1.67-3.71,3.71-3.71h6.44c-2.94-2.98-4.76-7.07-4.76-11.59,0-9.11,7.39-16.5,16.5-16.5M600.06,53.32c-4.51,0-8.75,1.76-11.94,4.95-3.19,3.19-4.95,7.43-4.95,11.94,0,4.17,1.5,8.11,4.25,11.2h-5.55c-2.26,0-4.1,1.84-4.1,4.1v1.59h22.94c4.31-.18,8.34-1.95,11.38-5.04,3.13-3.18,4.86-7.39,4.86-11.85s-1.76-8.75-4.95-11.94c-3.19-3.19-7.43-4.95-11.94-4.95"/>
              </g>
            </g>
            <path class="cls-19" d="M575.01,42.09c-3.15,0-5.71,2.56-5.71,5.71v34h-3.38c-1.36,0-2.46,1.1-2.46,2.46s1.1,2.46,2.46,2.46h9.22l5.52-38.1c.5-3.44-2.17-6.53-5.65-6.53"/>
            <g class="cls-13">
              <g class="cls-50">
                <path class="cls-25" d="M575.01,42.09c3.48,0,6.15,3.08,5.65,6.53l-5.52,38.1h-11.68v-1.2c0-2.04,1.67-3.71,3.71-3.71h2.13v-34c0-3.15,2.56-5.71,5.71-5.71ZM575.01,41.7c-3.36,0-6.1,2.74-6.1,6.1v33.61h-1.74c-2.26,0-4.1,1.84-4.1,4.1v1.59h12.4l.05-.33,5.52-38.1c.25-1.75-.27-3.53-1.42-4.86-1.16-1.34-2.84-2.11-4.61-2.11"/>
              </g>
            </g>
            <g class="cls-12">
              <g class="cls-51">
                <path class="cls-19" d="M582.94,13.31c0,2.44-.37,4.77-1.03,6.9-2.09,6.67-7.12,11.37-13,11.37-1.69,0-3.31-.39-4.81-1.1h0c-1.96.71-4.14,1.1-6.43,1.1-8.62,0-15.61-5.58-15.61-12.45,0-.64.06-1.28.18-1.9.05-.27.25-.49.51-.58l10.55-3.56,1.59-.54c.06-2.03.38-3.98.92-5.79,0,0,0,0,0,0,.07-.24.19-.45.35-.63,1.67-1.88,3.98-3.38,6.68-4.29,1.87-.63,3.92-.98,6.07-.98,5.42,0,10.2,2.21,13,5.56.67,2.13,1.03,4.46,1.03,6.9"/>
                <g class="cls-11">
                  <g class="cls-57">
                    <path class="cls-25" d="M567.91,13.05c0,2.24-1.81,4.05-4.05,4.05s-4.05-1.81-4.05-4.05,1.81-4.05,4.05-4.05,4.05,1.81,4.05,4.05"/>
                    <path class="cls-19" d="M566.5,13.37c0,1.92-1.56,3.48-3.48,3.48s-3.48-1.56-3.48-3.48,1.56-3.48,3.48-3.48,3.48,1.56,3.48,3.48"/>
                    <path class="cls-25" d="M565.72,12.67c0,.96-.78,1.74-1.74,1.74s-1.74-.78-1.74-1.74.78-1.74,1.74-1.74,1.74.78,1.74,1.74"/>
                  </g>
                </g>
                <path class="cls-21" d="M547.14,15.16l-4.4,1.49c-.26.09-.46.31-.51.58-.12.62-.18,1.25-.18,1.9,0,1.8.48,3.51,1.34,5.05,2.29-2.32,3.71-5.5,3.75-9.02"/>
                <path class="cls-21" d="M584.5,2.78c0,7.98-3,15.25-7.93,20.76-4.37-5.36-6.99-12.21-6.99-19.66,0-1.02.05-2.03.14-3.02h14.72c.04.64.06,1.28.06,1.92"/>
                <path class="cls-21" d="M584.5,2.78c0,7.98-3,15.25-7.93,20.76-4.37-5.36-6.99-12.21-6.99-19.66,0-1.02.05-2.03.14-3.02h14.72c.04.64.06,1.28.06,1.92"/>
              </g>
            </g>
            <g class="cls-16">
              <g class="cls-58">
                <polygon class="cls-33" points="560.22 34.63 583.79 26.6 583.79 23.75 560.22 31.78 560.22 34.63"/>
              </g>
            </g>
            <path class="cls-9" d="M563.85,24.45c-.33.66-.86,1.24-1.57,1.61-.7.38-1.48.5-2.21.41"/>
            <path class="cls-27" d="M565.39,33.99c-.18,1.11-.89,1.91-1.59,1.8-.7-.11-1.11-1.1-.93-2.21.18-1.11.89-1.91,1.59-1.8.7.11,1.11,1.1.93,2.21"/>
            <rect class="cls-27" x="561.82" y="33.45" width="4.06" height=".57" transform="translate(439.15 584.66) rotate(-80.67)"/>
            <path class="cls-28" d="M564.83,33.9c-.18,1.11-.89,1.91-1.59,1.8-.7-.11-1.11-1.1-.93-2.21.18-1.11.89-1.91,1.59-1.8.7.11,1.11,1.1.93,2.21"/>
          </g>
        </g>
      </g>
    </g>
  </g>
</svg>