<?xml version="1.0" encoding="UTF-8"?>
<svg id="Layer_2" data-name="Layer 2" xmlns="http://www.w3.org/2000/svg" xmlns:xlink="http://www.w3.org/1999/xlink" viewBox="0 0 3840 2160">
  <defs>
    <style>
      .cls-1 {
        clip-path: url(#clippath);
      }

      .cls-2 {
        fill: none;
      }

      .cls-2, .cls-3, .cls-4 {
        stroke-width: 0px;
      }

      .cls-5 {
        clip-path: url(#clippath-1);
      }

      .cls-6 {
        clip-path: url(#clippath-2);
      }

      .cls-3 {
        fill: #fff;
      }

      .cls-4 {
        fill: #0068b1;
      }
    </style>
    <clipPath id="clippath">
      <rect class="cls-2" width="3840" height="2160"/>
    </clipPath>
    <clipPath id="clippath-1">
      <rect class="cls-2" width="3840" height="2160"/>
    </clipPath>
    <clipPath id="clippath-2">
      <rect class="cls-2" x="635.23" y="1463.28" width="2627.16" height="610.83"/>
    </clipPath>
  </defs>
  <g id="Layer_1-2" data-name="Layer 1">
    <g id="PETSv23_Logo_Lockup2_White_CMYK">
      <g class="cls-1">
        <g class="cls-5">
          <path class="cls-3" d="M1079.89,274.78c-35.57-16.76-78.89-25.26-128.77-25.26h-176.19c-18.81,0-34.11,15.3-34.11,34.11v521.85c0,18.81,15.3,34.11,34.11,34.11h113.27c18.81,0,34.11-15.3,34.11-34.11v-126.69c0-8.02,6.53-14.55,14.55-14.55h16.78c43.79,0,83.87-8.51,119.14-25.28,35.63-16.94,64.23-41.99,85-74.45,20.79-32.52,31.33-71.13,31.33-114.76,0-39.1-9.23-74.12-27.43-104.08-18.27-30.05-45.79-53.9-81.79-70.89M1002.59,453.95c0,18.85-5.45,33.81-16.65,45.74-11.04,11.76-27.09,17.47-49.08,17.47-8.02,0-14.55-6.53-14.55-14.55v-92.29c0-8.02,6.53-14.55,14.55-14.55h3.36c18.98,0,33.88,4.97,45.57,15.2,11.3,9.89,16.8,23.95,16.8,42.97"/>
          <path class="cls-3" d="M1624.13,805.48v-75.51c0-18.81-15.3-34.11-34.11-34.11h-168.64c-8.02,0-14.55-6.53-14.55-14.55v-52.02c0-8.02,6.53-14.55,14.55-14.55h149.34c18.81,0,34.11-15.3,34.11-34.11v-76.35c0-18.81-15.3-34.11-34.11-34.11h-149.34c-8.02,0-14.55-6.53-14.55-14.55v-47.82c0-8.02,6.53-14.55,14.55-14.55h165.28c18.81,0,34.11-15.3,34.11-34.11v-75.51c0-18.81-15.3-34.11-34.11-34.11h-327.21c-18.81,0-34.11,15.3-34.11,34.11v521.85c0,18.81,15.3,34.11,34.11,34.11h330.56c18.81,0,34.11-15.3,34.11-34.11"/>
          <path class="cls-3" d="M1798.36,805.48c0,18.81,15.3,34.11,34.11,34.11h113.26c18.81,0,34.11-15.3,34.11-34.11v-396c0-8.02,6.53-14.55,14.55-14.55h96.48c18.81,0,34.11-15.3,34.11-34.11v-77.19c0-18.81-15.3-34.11-34.11-34.11h-402.72c-18.81,0-34.11,15.3-34.11,34.11v77.19c0,18.81,15.3,34.11,34.11,34.11h95.65c8.02,0,14.55,6.53,14.55,14.55v396Z"/>
          <path class="cls-3" d="M2310.97,692.5c-34.14,0-72.79-7.98-114.9-23.72-3.84-1.43-7.83-2.16-11.87-2.16-18.76,0-34.03,15.32-34.03,34.16v92.25c0,14.5,9.24,27.47,23,32.28,17.48,6.1,37.59,11.14,59.79,14.99,29.5,5.1,59.14,7.69,88.09,7.69,74.71,0,133.69-17.41,175.28-51.73,42.17-34.8,63.54-81.94,63.54-140.11,0-36.43-9.56-69.69-28.42-98.86-18.85-29.14-52.97-55.32-101.42-77.81l-21.16-9.31c-32.31-14.78-53.88-25.68-64-32.35-11.54-7.58-11.54-14.36-11.54-16.58,0-16.89,21.55-25.46,64.05-25.46,28.76,0,57.95,3.54,86.76,10.51,2.67.65,5.39.97,8.1.97,18.78,0,34.05-15.29,34.05-34.08v-84.64c0-15.48-10.42-29.06-25.34-33.01-14.18-3.76-28.89-6.87-43.73-9.24-21.41-3.42-48.6-5.16-80.83-5.16-44.12,0-84.17,7.16-119.03,21.27-35.41,14.34-63.51,35.49-83.51,62.86-20.18,27.59-30.41,60.73-30.41,98.48,0,40.15,11.59,74.95,34.45,103.44,22.38,27.92,59.57,53.97,110.51,77.44,35.04,16.43,59.12,29.14,71.51,37.74,10.15,7.07,15.09,14.6,15.09,23.01,0,18-21.55,27.13-64.05,27.13"/>
          <path class="cls-3" d="M1729.05,1295.55c-3.48,0-6.94.54-10.31,1.59-9.94,3.13-19.65,5.82-28.88,7.99-18.16,4.28-39.14,6.45-62.36,6.45-45.24,0-81.18-12.75-106.84-37.89-25.61-25.09-38.59-60.14-38.59-104.18,0-46.79,13.53-83.51,40.2-109.15,26.78-25.75,65.57-38.8,115.29-38.8,28.63,0,55.95,3.36,81.19,9.99,2.85.75,5.77,1.13,8.69,1.13,18.75,0,34.01-15.3,34.01-34.11v-85.4c0-14.87-9.38-27.88-23.33-32.37-35.56-11.44-76.44-17.24-121.52-17.24-66.12,0-124.21,12.5-172.66,37.14-48.78,24.82-86.84,60.85-113.14,107.08-26.18,46.03-39.45,100.72-39.45,162.57s13.29,112.83,39.49,158.02c26.26,45.32,63.13,80.73,109.61,105.27,46.21,24.41,99.83,36.79,159.36,36.79,54.89,0,102.79-8.18,142.37-24.3,12.72-5.19,20.95-17.55,20.95-31.49v-84.98c0-18.81-15.29-34.1-34.08-34.1"/>
          <path class="cls-3" d="M2110.35,1306.55h-116.35c-8.02,0-14.55-6.53-14.55-14.55v-385.93c0-18.81-15.3-34.11-34.11-34.11h-113.27c-18.81,0-34.11,15.3-34.11,34.11v521.85c0,18.81,15.3,34.11,34.11,34.11h278.28c18.81,0,34.11-15.3,34.11-34.11v-87.26c0-18.81-15.3-34.11-34.11-34.11"/>
          <path class="cls-3" d="M2642.98,871.96h-114.94c-18.81,0-34.11,15.3-34.11,34.11v284.42c0,38.9-6.33,69.57-18.82,91.16-11.64,20.14-31.38,29.93-60.33,29.93s-50.13-9.74-62.59-29.78c-13.22-21.25-19.92-52.54-19.92-92.99v-282.74c0-18.81-15.3-34.11-34.11-34.11h-113.27c-18.81,0-34.11,15.3-34.11,34.11v289.45c0,90.54,21.78,159.69,64.73,205.53,43.1,46.03,109.87,69.37,198.43,69.37,43.98,0,82.9-5.87,115.68-17.44,33.26-11.74,61.12-29.66,82.82-53.26,42.91-46.67,64.67-116.51,64.67-207.56v-286.09c0-18.81-15.3-34.11-34.11-34.11"/>
          <path class="cls-3" d="M3137.18,1180.3c-12.05-12.34-24.99-22.5-38.44-30.18-5.11-2.92-6.41-7.66-6.73-10.22-.59-4.72,1.12-9.52,4.58-12.84,6.31-6.08,12.26-13.04,17.66-20.67,15.39-21.73,23.2-48.19,23.2-78.65,0-51.17-18.43-90.53-54.79-116.98-35.4-25.74-86.59-38.79-152.16-38.79h-177.87c-18.81,0-34.11,15.3-34.11,34.11v521.85c0,18.81,15.3,34.11,34.11,34.11h193.81c70.76,0,126.88-16.25,166.79-48.3,40.57-32.57,61.13-76.63,61.13-130.96,0-42.72-12.51-77.2-37.18-102.48M2947.18,1081.54c-6.8,7.45-17.47,11.07-32.62,11.07h-1.68c-8.02,0-14.55-6.53-14.55-14.55v-55.37c0-8.02,6.53-14.55,14.55-14.55h2.52c14.2,0,24.56,3.46,31.68,10.56,7.1,7.11,10.56,16.92,10.56,29.99,0,14.38-3.42,25.12-10.45,32.84M2898.33,1308.79v-71.31c0-8.02,6.53-14.55,14.55-14.55h19.3c18.62,0,32.61,4.21,41.61,12.51,8.89,8.21,13.21,20.13,13.21,36.44s-4.41,28.88-13.5,37.97c-8.95,8.96-23.98,13.49-44.68,13.49h-15.94c-8.02,0-14.55-6.53-14.55-14.55"/>
          <path class="cls-3" d="M1026.87,1322.08c-2.22-13.87-4.18-27.73-3.86-41.24.62-26.12,16.05-46.52,13.38-73.85-2.81-28.77-17.68-55.58-38.63-75.16-19.23-17.98-44.11-30.39-70.46-32.99-28.93-2.86-46.73,13.41-73.17,16.93-51.15,6.81-111.12-21.78-151.98,21.95-35.04,37.49-27.35,101.61,17.17,143.22,24.08,22.5,55.21,33.86,79.84,56.77,26.81,24.94,42.58,57.64,68.66,82.01,44.52,41.61,109.01,44.95,144.05,7.46,28.82-30.84,20.97-68,15.02-105.1"/>
          <path class="cls-3" d="M1163.67,1360.41c-35.31,31.04-88.58,24.02-111.97-13.79-23.44-37.9-5.88-88.61,37.67-106.34,35.45-14.43,114.32-35.24,135.6-.83,21.3,34.43-32.57,95.69-61.31,120.96"/>
          <path class="cls-3" d="M1193.33,1159.44c-22.76,33.35-77,79.23-118.35,38.62-40.58-39.85-23.36-108.29,8.57-143.23,25.52-27.92,108.55-94.59,141-63.89,31.74,30.03-5.16,130.3-31.23,168.5"/>
          <path class="cls-3" d="M758.49,981.73c-28.59,37.32-17.99,90,21.32,110.78,39.4,20.83,88.81-.12,103.55-44.76,12-36.34,27.43-116.44-8.33-135.35-35.79-18.92-93.27,38.96-116.54,69.34"/>
          <path class="cls-3" d="M957,938.57c-31.74,24.96-73.85,82.17-30.54,120.69,42.5,37.79,109.62,16,142.32-18.23,26.13-27.34,87.05-114.69,54.22-145-32.11-29.64-129.65,13.95-166,42.54"/>
        </g>
        <g class="cls-6">
          <path class="cls-3" d="M2596.76,1768.65c0,112.39-90.13,203.5-201.31,203.5s-201.31-91.11-201.31-203.5,90.13-203.5,201.31-203.5,201.31,91.11,201.31,203.5"/>
          <path class="cls-3" d="M3101.11,1745.98c-22.02-11.53-39.82-20.92-39.82-38.78,0-12.62,10.69-20.47,28.68-20.47,21.37,0,40.33,6.98,54.86,15.71v-45.96c-15.23-6.62-36.16-12.19-54.89-12.19-53.12,0-76.9,31.99-76.9,66.58,0,40.61,27.05,60.11,56.89,76.05,29.42,15.72,40.56,22.54,40.56,39.51,0,14.36-12.32,22.59-32.97,22.59-28.69,0-49.03-13.41-62.24-24.12l.04,48.86c12.37,8.74,38.97,19.24,61.89,19.24,51.57,0,84.08-27.2,84.08-70.98s-38.16-64.51-60.18-76.05"/>
          <path class="cls-3" d="M2707.98,1646.55h-63.68v244.2h47.53v-77.68h9.58c59.52,0,96.49-31.99,96.49-83.49s-33.61-83.02-89.92-83.02M2691.83,1687.26h13.98c27.91,0,45.94,16.32,45.94,41.58,0,27.36-16.61,43.05-45.57,43.05h-14.34v-84.64Z"/>
          <path class="cls-3" d="M2949.63,1759.25c16.1-11.42,23.93-27.88,23.93-50.22,0-38.54-28.02-62.49-73.14-62.49h-73.74v244.2h77.02c59.03,0,85.92-38.32,85.92-73.93,0-28.17-15.24-49.93-40-57.57M2897.03,1687.68c18.6,0,30.62,11.71,30.62,29.84s-13.02,30.21-33.17,30.21h-20.23v-60.06h22.79ZM2874.24,1849.98v-63.75h30.09c23.97,0,38.29,11.85,38.29,31.69,0,21.27-14.35,32.05-42.67,32.05h-25.71Z"/>
          <path class="cls-4" d="M2542.05,1770.64l-22.34,4.59v41.75c0,14.02-11.41,25.21-26.17,25.21h-11.43v48.56h-36.77v-48.56h11.43c14.76,0,26.18-11.18,26.18-25.21v-41.75l22.34-4.59c4.84-1,7.39-6.41,5.1-10.83l-58.59-113.26h36.77l58.6,113.26c2.29,4.43-.26,9.84-5.1,10.83"/>
          <path class="cls-4" d="M2466.74,1759.8l-58.6-113.26h-60.64c-55.16,0-102,45.64-100.69,101.38.98,41.59,27.53,72.76,64.42,84.48v58.34h90.46v-48.56h11.43c14.76,0,26.18-11.18,26.18-25.2v-41.75l22.34-4.59c4.84-1,7.39-6.41,5.1-10.83M2390.49,1753.33c-12.71,0-23.01-10.41-23.01-23.26s10.3-23.26,23.01-23.26,23.01,10.41,23.01,23.26-10.3,23.26-23.01,23.26"/>
          <polygon class="cls-3" points="858.33 1782.44 775.44 1646.37 736.47 1646.37 736.47 1891.3 777.03 1891.3 777.03 1724.98 851.36 1843.91 862.45 1843.91 936.07 1726.05 936.07 1891.3 976.99 1891.3 976.99 1646.37 941.21 1646.37 858.33 1782.44"/>
          <path class="cls-3" d="M1151.88,1716.97c-13.49-7.54-28.97-11.36-46.01-11.36s-33.28,3.76-46.89,11.18c-13.61,7.42-24.48,18.4-32.3,32.65-7.81,14.24-11.77,31.39-11.77,50.99s3.9,36.41,11.59,50.63c7.69,14.24,18.5,25.29,32.12,32.83,13.61,7.54,29.03,11.36,45.83,11.36s32.98-3.94,46.72-11.72c13.74-7.78,24.66-19.07,32.47-33.55,7.81-14.47,11.77-31.87,11.77-51.71,0-18.41-3.9-34.84-11.59-48.84-7.7-14-18.44-24.93-31.94-32.47M1105.16,1858.91c-13.55,0-24.86-5.21-33.62-15.48-8.78-10.29-13.22-24.88-13.22-43.36s4.45-33.54,13.22-43.36c8.76-9.8,20.19-14.77,33.98-14.77s25.39,5.03,33.8,14.94c8.42,9.93,12.69,24.1,12.69,42.11,0,19.2-4.45,34.15-13.22,44.44-8.76,10.27-20.07,15.48-33.62,15.48"/>
          <path class="cls-3" d="M1372.34,1722.24c-11.28-11.03-26.72-16.63-45.91-16.63-11.84,0-22.28,1.82-31.05,5.42-8.58,3.52-16.93,8.47-24.82,14.74l-3.48-16.2h-35.52v181.74h41.28v-129.12c5.83-5.64,12.21-10.41,18.98-14.18,6.78-3.78,14.72-5.7,23.61-5.7,10.95,0,19.22,3.1,24.57,9.2,5.35,6.12,8.07,14.73,8.07,25.59v114.21h41.28v-122.11c0-20.12-5.72-35.92-16.99-46.96"/>
          <path class="cls-3" d="M1483.09,1658.08l-41.28,12.44v39.03h-25.93v32.75h25.93v97.97c0,16.78,4.52,30.28,13.42,40.12,8.91,9.85,22.93,14.85,41.67,14.85,6.36,0,12.66-.48,18.71-1.44,6.04-.96,10.91-2.18,14.47-3.61l.25-.1v-34.93l-.52.17c-7.03,2.37-14.51,3.57-22.25,3.57-16.46,0-24.47-8.56-24.47-26.17v-90.44h48.3v-32.75h-48.3v-51.48Z"/>
          <path class="cls-3" d="M1628.31,1705.61c-21.25,0-42.09,3.88-61.94,11.52l-.25.1v38.25l.57-.28c8.68-4.27,18.04-7.64,27.8-10.02,9.76-2.38,19.35-3.58,28.5-3.58,15.42,0,25.83,3.51,30.94,10.43,5.13,6.96,7.73,16.85,7.73,29.38v1.3c-9.32-2.08-19.47-3.13-30.15-3.13-23.41,0-42.83,4.73-57.74,14.06-14.97,9.37-22.56,24.58-22.56,45.22,0,17.27,5.36,31.14,15.93,41.22,10.56,10.08,24.93,15.19,42.71,15.19,11.36,0,21.99-2,31.58-5.95,9.36-3.85,17.3-8.63,23.63-14.2l4.88,16.21h33.01v-113.85c0-22.98-6.31-40.89-18.77-53.24-12.45-12.34-31.24-18.6-55.86-18.6M1661.66,1812.25v32.85c-13.55,9.64-27.63,14.53-41.87,14.53-8.15,0-14.57-2.14-19.09-6.36-4.51-4.21-6.8-9.55-6.8-15.86,0-10.07,4.29-17.2,12.74-21.18,8.55-4.02,19.07-6.07,31.27-6.07,8.56,0,16.55.7,23.76,2.08"/>
          <path class="cls-3" d="M1890.52,1722.24c-11.28-11.03-26.72-16.63-45.91-16.63-11.84,0-22.28,1.82-31.05,5.42-8.58,3.52-16.93,8.47-24.82,14.74l-3.48-16.2h-35.52v181.74h41.28v-129.12c5.83-5.64,12.21-10.41,18.98-14.18,6.78-3.78,14.72-5.7,23.61-5.7,10.95,0,19.22,3.1,24.56,9.2,5.36,6.12,8.07,14.73,8.07,25.59v114.21h41.28v-122.11c0-20.12-5.72-35.92-16.99-46.96"/>
          <path class="cls-3" d="M2077.68,1724.21c-12.45-12.34-31.24-18.6-55.86-18.6-21.25,0-42.09,3.88-61.94,11.52l-.25.1v38.25l.57-.28c8.68-4.27,18.03-7.64,27.8-10.02,9.76-2.38,19.35-3.58,28.5-3.58,15.42,0,25.83,3.51,30.94,10.43,5.13,6.96,7.73,16.85,7.73,29.38v1.3c-9.32-2.08-19.47-3.13-30.15-3.13-23.41,0-42.83,4.73-57.74,14.06-14.97,9.37-22.56,24.58-22.56,45.22,0,17.27,5.36,31.14,15.93,41.22,10.56,10.08,24.93,15.19,42.71,15.19,11.36,0,21.99-2,31.58-5.95,9.36-3.85,17.3-8.63,23.63-14.2l4.88,16.21h33.01v-113.85c0-22.98-6.31-40.89-18.77-53.24M2055.17,1812.25v32.85c-13.55,9.64-27.63,14.53-41.87,14.53-8.15,0-14.57-2.14-19.09-6.36-4.51-4.21-6.8-9.55-6.8-15.86,0-10.07,4.29-17.2,12.74-21.18,8.55-4.02,19.07-6.07,31.27-6.07,8.56,0,16.55.7,23.76,2.08"/>
        </g>
      </g>
    </g>
  </g>
</svg>